<?xml version="1.0" encoding="UTF-8" standalone="no"?>
<svg
   xmlns:dc="http://purl.org/dc/elements/1.1/"
   xmlns:cc="http://creativecommons.org/ns#"
   xmlns:rdf="http://www.w3.org/1999/02/22-rdf-syntax-ns#"
   xmlns:svg="http://www.w3.org/2000/svg"
   xmlns="http://www.w3.org/2000/svg"
   xmlns:sodipodi="http://sodipodi.sourceforge.net/DTD/sodipodi-0.dtd"
   xmlns:inkscape="http://www.inkscape.org/namespaces/inkscape"
   width="177.16528"
   height="94.664497"
   id="svg2"
   version="1.1"
   inkscape:version="0.48.3.1 r9886"
   sodipodi:docname="plosak.svg">
  <sodipodi:namedview
     pagecolor="#ffffff"
     bordercolor="#666666"
     borderopacity="1"
     objecttolerance="10"
     gridtolerance="10"
     guidetolerance="10"
     inkscape:pageopacity="0"
     inkscape:pageshadow="2"
     inkscape:window-width="1400"
     inkscape:window-height="991"
     id="base"
     showgrid="false"
     fit-margin-top="0"
     fit-margin-left="0"
     fit-margin-right="0"
     fit-margin-bottom="0"
     inkscape:zoom="5.7384325"
     inkscape:cx="93.593911"
     inkscape:cy="40.947361"
     inkscape:window-x="0"
     inkscape:window-y="27"
     inkscape:window-maximized="1"
     inkscape:current-layer="g21" />
  <metadata
     id="metadata145">
    <rdf:RDF>
      <cc:Work
         rdf:about="">
        <dc:format>image/svg+xml</dc:format>
        <dc:type
           rdf:resource="http://purl.org/dc/dcmitype/StillImage" />
        <dc:title />
      </cc:Work>
    </rdf:RDF>
  </metadata>
  <desc
     id="desc4">/home/stick/work/bitkey/bitkey-hw/stl/plosak.dxf - scale = 4.200000</desc>
  <defs
     id="defs6">
    <marker
       orient="auto"
       id="DistanceX"
       style="overflow:visible"
       refX="0"
       refY="0">
      <path
         inkscape:connector-curvature="0"
         id="path9"
         d="M 3,-3 -3,3 M 0,-5 0,5"
         style="stroke:#000000;stroke-width:0.5" />
    </marker>
    <pattern
       id="Hatch"
       x="0"
       y="0"
       patternUnits="userSpaceOnUse"
       width="8"
       height="8">
      <path
         id="path12"
         d="M8 4 l-4,4"
         stroke-width="0.25"
         stroke="#000000"
         linecap="square" />
      <path
         id="path14"
         d="M6 2 l-4,4"
         stroke-width="0.25"
         stroke="#000000"
         linecap="square" />
      <path
         id="path16"
         d="M4 0 l-4,4"
         stroke-width="0.25"
         stroke="#000000"
         linecap="square" />
    </pattern>
    <symbol
       id="*Model_Space" />
    <symbol
       id="*Paper_Space" />
    <symbol
       id="*Paper_Space0" />
  </defs>
  <g
     transform="translate(0.25301829,-957.9507)"
     id="g21"
     inkscape:groupmode="layer"
     inkscape:label="0">
    <path
       inkscape:connector-curvature="0"
       id="path23"
       d="M166.75847 1033.6094L166.56871843 1032.9012375L166.0503075 1032.38282657L165.342145 1032.193075L164.6339825 1032.38282657L164.11557157 1032.9012375L163.92582 1033.6094L164.11557157 1034.3175625L164.6339825 1034.83597343L165.342145 1035.025725L166.0503075 1034.83597343L166.56871843 1034.3175625L166.75847 1033.6094L166.75847 1033.6094"
       style="fill:none;stroke:#000000;stroke-width:0.1;stroke-linecap:round" />
    <path
       inkscape:connector-curvature="0"
       id="path25"
       d="M146.18639 1030.8476L145.879973389 1028.53795294L145.000444989 1026.42159234L143.607387246 1024.60171802L141.760382608 1023.18152982L139.606961254 1022.29207093L137.334375 1021.99558463L135.061788746 1022.29207093L132.908367392 1023.18152982L131.061362754 1024.60171802L129.668305011 1026.42159234L128.788776611 1028.53795294L128.48236 1030.8476L128.788776691 1033.15724698L129.668305135 1035.2736075L131.061362887 1037.09348174L132.9083675 1038.51366986L135.061788805 1039.40312872L137.334375 1039.699615L139.606961195 1039.40312872L141.7603825 1038.51366986L143.607387113 1037.09348174L145.000444865 1035.2736075L145.879973309 1033.15724698L146.18639 1030.8476L146.18639 1030.8476"
       style="fill:none;stroke:#000000;stroke-width:0.1;stroke-linecap:round" />
    <path
       inkscape:connector-curvature="0"
       id="path27"
       d="M100.15592 979.71834L99.8495032221 977.408692367L98.9699745297 975.29233125L97.576916385 973.472456501L95.72991125 972.05226797L93.5764893371 971.162808868L91.3039025 970.8663225L89.0313156629 971.162808868L86.87789375 972.05226797L85.030888615 973.472456501L83.6378304703 975.29233125L82.7583017779 977.408692367L82.451885 979.71834L82.7583017779 982.027987633L83.6378304703 984.14434875L85.030888615 985.964223499L86.87789375 987.38441203L89.0313156629 988.273871132L91.3039025 988.5703575L93.5764893371 988.273871132L95.72991125 987.38441203L97.576916385 985.964223499L98.9699745297 984.14434875L99.8495032221 982.027987633L100.15592 979.71834L100.15592 979.71834"
       style="fill:none;stroke:#000000;stroke-width:0.1;stroke-linecap:round" />
    <path
       inkscape:connector-curvature="0"
       id="path29"
       d="M100.15592 1030.8476L99.8495032221 1028.53795237L98.9699745297 1026.42159125L97.576916385 1024.6017165L95.72991125 1023.18152797L93.5764893371 1022.29206887L91.3039025 1021.9955825L89.0313156629 1022.29206887L86.87789375 1023.18152797L85.030888615 1024.6017165L83.6378304703 1026.42159125L82.7583017779 1028.53795237L82.451885 1030.8476L82.7583017779 1033.15724763L83.6378304703 1035.27360875L85.030888615 1037.0934835L86.87789375 1038.51367203L89.0313156629 1039.40313113L91.3039025 1039.6996175L93.5764893371 1039.40313113L95.72991125 1038.51367203L97.576916385 1037.0934835L98.9699745297 1035.27360875L99.8495032221 1033.15724763L100.15592 1030.8476L100.15592 1030.8476"
       style="fill:none;stroke:#000000;stroke-width:0.1;stroke-linecap:round" />
    <path
       inkscape:connector-curvature="0"
       id="path31"
       d="M44.069553 1005.2829L43.7631363259 1002.97325315L42.8836079317 1000.85689275L41.4905502591 999.037018617L39.64354575 997.616830568L37.4901245669 996.727371767L35.2175385 996.4308855L32.9449524331 996.727371767L30.79153125 997.616830568L28.9445267409 999.037018617L27.5514690683 1000.85689275L26.6719406741 1002.97325315L26.365524 1005.2829L26.6719406741 1007.59254685L27.5514690683 1009.70890725L28.9445267409 1011.52878138L30.79153125 1012.94896943L32.9449524331 1013.83842823L35.2175385 1014.1349145L37.4901245669 1013.83842823L39.64354575 1012.94896943L41.4905502591 1011.52878138L42.8836079317 1009.70890725L43.7631363259 1007.59254685L44.069553 1005.2829L44.069553 1005.2829"
       style="fill:none;stroke:#000000;stroke-width:0.1;stroke-linecap:round" />
    <path
       inkscape:connector-curvature="0"
       id="path33"
       d="M146.18639 979.71834L145.879973389 977.408692945L145.000444989 975.292332342L143.607387246 973.472458025L141.760382608 972.052269824L139.606961254 971.162810926L137.334375 970.866324627L135.061788746 971.162810926L132.908367392 972.052269824L131.061362754 973.472458025L129.668305011 975.292332342L128.788776611 977.408692945L128.48236 979.71834L128.788776691 982.027986981L129.668305135 984.1443475L131.061362887 985.964221735L132.9083675 987.384409865L135.061788805 988.273868716L137.334375 988.570355L139.606961195 988.273868716L141.7603825 987.384409865L143.607387113 985.964221735L145.000444865 984.1443475L145.879973309 982.027986981L146.18639 979.71834L146.18639 979.71834"
       style="fill:none;stroke:#000000;stroke-width:0.1;stroke-linecap:round" />
    <path
       inkscape:connector-curvature="0"
       id="path35"
       d="M166.75847 976.95653L166.56871843 976.2483675L166.0503075 975.72995657L165.342145 975.540205L164.6339825 975.72995657L164.11557157 976.2483675L163.92582 976.95653L164.11557157 977.6646925L164.6339825 978.18310343L165.342145 978.372855L166.0503075 978.18310343L166.56871843 977.6646925L166.75847 976.95653L166.75847 976.95653"
       style="fill:none;stroke:#000000;stroke-width:0.1;stroke-linecap:round" />
    <path
       inkscape:connector-curvature="0"
       id="path37"
       d="M38.050183 1005.2829L37.6710355104 1003.8661278L36.6341681197 1002.82887071L35.2175385 1002.44919085L33.8009088803 1002.82887071L32.7640414896 1003.8661278L32.384894 1005.2829L32.7640414896 1006.6996722L33.8009088803 1007.73692929L35.2175385 1008.11660915L36.6341681197 1007.73692929L37.6710355104 1006.6996722L38.050183 1005.2829L38.050183 1005.2829"
       style="fill:none;stroke:#000000;stroke-width:0.1;stroke-linecap:round" />
    <path
       inkscape:connector-curvature="0"
       id="path63"
       d="M15.409539 979.63775L2.388096 987.45062"
       style="fill:none;stroke:#000000;stroke-width:0.1;stroke-linecap:round" />
    <path
       inkscape:connector-curvature="0"
       id="path65"
       d="M50.188973 958.7701L37.16753 966.58296"
       style="fill:none;stroke:#000000;stroke-width:0.1;stroke-linecap:round" />
    <path
       inkscape:connector-curvature="0"
       id="path67"
       d="M171.53855 958.0132L52.921567 958.0132"
       style="fill:none;stroke:#000000;stroke-width:0.1;stroke-linecap:round" />
    <path
       inkscape:connector-curvature="0"
       id="path69"
       d="M176.84976 979.46592L176.84976 963.32442"
       style="fill:none;stroke:#000000;stroke-width:0.1;stroke-linecap:round" />
    <path
       inkscape:connector-curvature="0"
       id="path71"
       d="M176.84976 1047.2416L176.84976 1031.1"
       style="fill:none;stroke:#000000;stroke-width:0.1;stroke-linecap:round" />
    <path
       inkscape:connector-curvature="0"
       id="path73"
       d="M52.921567 1052.5527L171.53855 1052.5527"
       style="fill:none;stroke:#000000;stroke-width:0.1;stroke-linecap:round" />
    <path
       inkscape:connector-curvature="0"
       id="path75"
       d="M38.105359 1044.5457L50.188973 1051.7958"
       style="fill:none;stroke:#000000;stroke-width:0.1;stroke-linecap:round" />
    <path
       inkscape:connector-curvature="0"
       id="path77"
       d="M21.758627 1028.5437L36.28363 1037.2587"
       style="fill:none;stroke:#000000;stroke-width:0.1;stroke-linecap:round" />
    <path
       inkscape:connector-curvature="0"
       id="path79"
       d="M2.388096 1023.1153L14.471709 1030.3655"
       style="fill:none;stroke:#000000;stroke-width:0.1;stroke-linecap:round" />
    <path
       inkscape:connector-curvature="0"
       id="path81"
       d="M-0.19051829 992.00494L-0.19051829 1018.5611"
       style="fill:none;stroke:#000000;stroke-width:0.1;stroke-linecap:round" />
    <path
       inkscape:connector-curvature="0"
       id="path83"
       d="M171.53855 1022.9869L171.53855 987.57894"
       style="fill:none;stroke:#000000;stroke-width:0.1;stroke-linecap:round" />
    <path
       inkscape:connector-curvature="0"
       id="path85"
       d="M35.345799 973.86988L22.696457 981.45948"
       style="fill:none;stroke:#000000;stroke-width:0.1;stroke-linecap:round" />
    <path
       inkscape:connector-curvature="0"
       id="path115"
       d="M2.388096 987.45062L0.498878005355 989.388115969L-0.19051829 992.00494"
       style="fill:none;stroke:#000000;stroke-width:0.1;stroke-linecap:round" />
    <path
       inkscape:connector-curvature="0"
       id="path117"
       d="M35.345799 973.86988L36.8806579687 972.477484206L37.7658356765 970.603713001L37.8665717417 968.533831278L37.16753 966.58296"
       style="fill:none;stroke:#000000;stroke-width:0.1;stroke-linecap:round" />
    <path
       inkscape:connector-curvature="0"
       id="path119"
       d="M52.921567 958.0132L51.5038261002 958.205924948L50.188973 958.7701"
       style="fill:none;stroke:#000000;stroke-width:0.1;stroke-linecap:round" />
    <path
       inkscape:connector-curvature="0"
       id="path121"
       d="M176.84976 963.32442L176.445471456 961.291904639L175.294146553 959.568820518L173.5710646 958.41749237L171.53855 958.0132"
       style="fill:none;stroke:#000000;stroke-width:0.1;stroke-linecap:round" />
    <path
       inkscape:connector-curvature="0"
       id="path123"
       d="M171.53855 1022.9869L171.764291097 1024.51964075L172.406085542 1025.89596794L173.410794716 1027.03471116L174.72528 1027.8547"
       style="fill:none;stroke:#000000;stroke-width:0.1;stroke-linecap:round" />
    <path
       inkscape:connector-curvature="0"
       id="path125"
       d="M171.53855 1052.5527L173.605886199 1052.13533031L175.294104127 1050.99712191L176.432347492 1049.30892755L176.84976 1047.2416"
       style="fill:none;stroke:#000000;stroke-width:0.1;stroke-linecap:round" />
    <path
       inkscape:connector-curvature="0"
       id="path127"
       d="M50.188973 1051.7958L51.5038261002 1052.35997505L52.921567 1052.5527"
       style="fill:none;stroke:#000000;stroke-width:0.1;stroke-linecap:round" />
    <path
       inkscape:connector-curvature="0"
       id="path129"
       d="M38.105359 1044.5457L38.8044303308 1042.59481091L38.7037041608 1040.52490193L37.8185155435 1038.6511063L36.28363 1037.2587"
       style="fill:none;stroke:#000000;stroke-width:0.1;stroke-linecap:round" />
    <path
       inkscape:connector-curvature="0"
       id="path131"
       d="M21.758627 1028.5437L19.8077456497 1027.84467116L17.7378596573 1027.94542503L15.8640921959 1028.83062268L14.471709 1030.3655"
       style="fill:none;stroke:#000000;stroke-width:0.1;stroke-linecap:round" />
    <path
       inkscape:connector-curvature="0"
       id="path133"
       d="M176.84976 1031.1L176.271433169 1029.16056454L174.72528 1027.8547"
       style="fill:none;stroke:#000000;stroke-width:0.1;stroke-linecap:round" />
    <path
       inkscape:connector-curvature="0"
       id="path135"
       d="M-0.19051829 1018.5611L0.498907566788 1021.17785624L2.388096 1023.1153"
       style="fill:none;stroke:#000000;stroke-width:0.1;stroke-linecap:round" />
    <path
       inkscape:connector-curvature="0"
       id="path137"
       d="M174.72528 982.71113L176.271408521 981.405303108L176.84976 979.46592"
       style="fill:none;stroke:#000000;stroke-width:0.1;stroke-linecap:round" />
    <path
       inkscape:connector-curvature="0"
       id="path139"
       d="M174.72528 982.71113L173.410792754 983.531120505L172.406082804 984.669866241L171.764288952 986.046196356L171.53855 987.578939999"
       style="fill:none;stroke:#000000;stroke-width:0.1;stroke-linecap:round" />
    <path
       inkscape:connector-curvature="0"
       id="path141"
       d="M15.409539 979.63775L16.8019347193 981.172608015L18.6757053609 982.057785142L20.745586327 982.158521187L22.696457 981.45948"
       style="fill:none;stroke:#000000;stroke-width:0.1;stroke-linecap:round" />
  </g>
</svg>
