  0
SECTION
  2
HEADER
  9
$ACADVER
  1
AC1014
  9
$HANDSEED
  5
FFFF
  9
$MEASUREMENT
 70
     1
  0
ENDSEC
  0
SECTION
  2
TABLES
  0
TABLE
  2
VPORT
  5
8
330
0
100
AcDbSymbolTable
 70
     4
  0
VPORT
  5
2E
330
8
100
AcDbSymbolTableRecord
100
AcDbViewportTableRecord
  2
*ACTIVE
 70
     0
 10
0.0
 20
0.0
 11
1.0
 21
1.0
 12
210.0
 22
148.5
 13
0.0
 23
0.0
 14
10.0
 24
10.0
 15
10.0
 25
10.0
 16
0.0
 26
0.0
 36
1.0
 17
0.0
 27
0.0
 37
0.0
 40
341.0
 41
1.24
 42
50.0
 43
0.0
 44
0.0
 50
0.0
 51
0.0
 71
     0
 72
   100
 73
     1
 74
     3
 75
     0
 76
     0
 77
     0
 78
     0
  0
ENDTAB
  0
TABLE
  2
LTYPE
  5
5
330
0
100
AcDbSymbolTable
 70
     1
  0
LTYPE
  5
14
330
5
100
AcDbSymbolTableRecord
100
AcDbLinetypeTableRecord
  2
BYBLOCK
 70
     0
  3

 72
    65
 73
     0
 40
0.0
  0
LTYPE
  5
15
330
5
100
AcDbSymbolTableRecord
100
AcDbLinetypeTableRecord
  2
BYLAYER
 70
     0
  3

 72
    65
 73
     0
 40
0.0
  0
LTYPE
  5
16
330
5
100
AcDbSymbolTableRecord
100
AcDbLinetypeTableRecord
  2
CONTINUOUS
 70
     0
  3
Solid line
 72
    65
 73
     0
 40
0.0
  0
ENDTAB
  0
TABLE
  2
LAYER
  5
2
100
AcDbSymbolTable
 70
1
  0
LAYER
  5
50
100
AcDbSymbolTableRecord
100
AcDbLayerTableRecord
  2
0
 70
0
  6
CONTINUOUS
  0
ENDTAB
  0
TABLE
  2
STYLE
  5
3
330
0
100
AcDbSymbolTable
 70
     1
  0
STYLE
  5
11
330
3
100
AcDbSymbolTableRecord
100
AcDbTextStyleTableRecord
  2
STANDARD
 70
     0
 40
0.0
 41
1.0
 50
0.0
 71
     0
 42
2.5
  3
txt
  4

  0
ENDTAB
  0
TABLE
  2
VIEW
  5
6
330
0
100
AcDbSymbolTable
 70
     0
  0
ENDTAB
  0
TABLE
  2
UCS
  5
7
330
0
100
AcDbSymbolTable
 70
     0
  0
ENDTAB
  0
TABLE
  2
APPID
  5
9
330
0
100
AcDbSymbolTable
 70
     2
  0
APPID
  5
12
330
9
100
AcDbSymbolTableRecord
100
AcDbRegAppTableRecord
  2
ACAD
 70
     0
  0
ENDTAB
  0
TABLE
  2
DIMSTYLE
  5
A
330
0
100
AcDbSymbolTable
 70
     1
  0
DIMSTYLE
105
27
330
A
100
AcDbSymbolTableRecord
100
AcDbDimStyleTableRecord
  2
ISO-25
 70
     0
  3

  4

  5

  6

  7

 40
1.0
 41
2.5
 42
0.625
 43
3.75
 44
1.25
 45
0.0
 46
0.0
 47
0.0
 48
0.0
140
2.5
141
2.5
142
0.0
143
0.03937007874016
144
1.0
145
0.0
146
1.0
147
0.625
 71
     0
 72
     0
 73
     0
 74
     0
 75
     0
 76
     0
 77
     1
 78
     8
170
     0
171
     3
172
     1
173
     0
174
     0
175
     0
176
     0
177
     0
178
     0
270
     2
271
     2
272
     2
273
     2
274
     3
340
11
275
     0
280
     0
281
     0
282
     0
283
     0
284
     8
285
     0
286
     0
287
     3
288
     0
  0
ENDTAB
  0
TABLE
  2
BLOCK_RECORD
  5
1
330
0
100
AcDbSymbolTable
 70
     1
  0
BLOCK_RECORD
  5
1F
330
1
100
AcDbSymbolTableRecord
100
AcDbBlockTableRecord
  2
*MODEL_SPACE
  0
BLOCK_RECORD
  5
1B
330
1
100
AcDbSymbolTableRecord
100
AcDbBlockTableRecord
  2
*PAPER_SPACE
  0
ENDTAB
  0
ENDSEC
  0
SECTION
  2
BLOCKS
  0
BLOCK
  5
20
330
1F
100
AcDbEntity
  8
0
100
AcDbBlockBegin
  2
*MODEL_SPACE
 70
     0
 10
0.0
 20
0.0
 30
0.0
  3
*MODEL_SPACE
  1

  0
ENDBLK
  5
21
330
1F
100
AcDbEntity
  8
0
100
AcDbBlockEnd
  0
BLOCK
  5
1C
330
1B
100
AcDbEntity
 67
     1
  8
0
100
AcDbBlockBegin
  2
*PAPER_SPACE
  1

  0
ENDBLK
  5
1D
330
1B
100
AcDbEntity
 67
     1
  8
0
100
AcDbBlockEnd
  0
ENDSEC
  0
SECTION
  2
ENTITIES
  0
LINE
  5
100
100
AcDbEntity
  8
0
 62
7
100
AcDbLine
 10
47.134353
 20
5.363858
 30
0.0
 11
47.080801
 21
5.563717
 31
0.0
  0
LINE
  5
101
100
AcDbEntity
  8
0
 62
7
100
AcDbLine
 10
47.080801
 20
5.563717
 30
0.0
 11
46.934494
 21
5.710025
 31
0.0
  0
LINE
  5
102
100
AcDbEntity
  8
0
 62
7
100
AcDbLine
 10
46.934494
 20
5.710025
 30
0.0
 11
46.734635
 21
5.763577
 31
0.0
  0
LINE
  5
103
100
AcDbEntity
  8
0
 62
7
100
AcDbLine
 10
46.734635
 20
5.763577
 30
0.0
 11
46.534776
 21
5.710025
 31
0.0
  0
LINE
  5
104
100
AcDbEntity
  8
0
 62
7
100
AcDbLine
 10
46.534776
 20
5.710025
 30
0.0
 11
46.388469
 21
5.563717
 31
0.0
  0
LINE
  5
105
100
AcDbEntity
  8
0
 62
7
100
AcDbLine
 10
46.388469
 20
5.563717
 30
0.0
 11
46.334917
 21
5.363858
 31
0.0
  0
LINE
  5
106
100
AcDbEntity
  8
0
 62
7
100
AcDbLine
 10
46.334917
 20
5.363858
 30
0.0
 11
46.388469
 21
5.163999
 31
0.0
  0
LINE
  5
107
100
AcDbEntity
  8
0
 62
7
100
AcDbLine
 10
46.388469
 20
5.163999
 30
0.0
 11
46.534776
 21
5.017692
 31
0.0
  0
LINE
  5
108
100
AcDbEntity
  8
0
 62
7
100
AcDbLine
 10
46.534776
 20
5.017692
 30
0.0
 11
46.734635
 21
4.964140
 31
0.0
  0
LINE
  5
109
100
AcDbEntity
  8
0
 62
7
100
AcDbLine
 10
46.734635
 20
4.964140
 30
0.0
 11
46.934494
 21
5.017692
 31
0.0
  0
LINE
  5
10a
100
AcDbEntity
  8
0
 62
7
100
AcDbLine
 10
46.934494
 20
5.017692
 30
0.0
 11
47.080801
 21
5.163999
 31
0.0
  0
LINE
  5
10b
100
AcDbEntity
  8
0
 62
7
100
AcDbLine
 10
47.080801
 20
5.163999
 30
0.0
 11
47.134353
 21
5.363858
 31
0.0
  0
LINE
  5
10c
100
AcDbEntity
  8
0
 62
7
100
AcDbLine
 10
47.134353
 20
5.363858
 30
0.0
 11
47.134353
 21
5.363858
 31
0.0
  0
LINE
  5
10d
100
AcDbEntity
  8
0
 62
7
100
AcDbLine
 10
41.328455
 20
6.143300
 30
0.0
 11
41.241978
 21
6.795133
 31
0.0
  0
LINE
  5
10e
100
AcDbEntity
  8
0
 62
7
100
AcDbLine
 10
41.241978
 20
6.795133
 30
0.0
 11
40.993755
 21
7.392417
 31
0.0
  0
LINE
  5
10f
100
AcDbEntity
  8
0
 62
7
100
AcDbLine
 10
40.993755
 20
7.392417
 30
0.0
 11
40.600603
 21
7.906026
 31
0.0
  0
LINE
  5
110
100
AcDbEntity
  8
0
 62
7
100
AcDbLine
 10
40.600603
 20
7.906026
 30
0.0
 11
40.079338
 21
8.306835
 31
0.0
  0
LINE
  5
111
100
AcDbEntity
  8
0
 62
7
100
AcDbLine
 10
40.079338
 20
8.306835
 30
0.0
 11
39.471594
 21
8.557860
 31
0.0
  0
LINE
  5
112
100
AcDbEntity
  8
0
 62
7
100
AcDbLine
 10
39.471594
 20
8.557860
 30
0.0
 11
38.830220
 21
8.641535
 31
0.0
  0
LINE
  5
113
100
AcDbEntity
  8
0
 62
7
100
AcDbLine
 10
38.830220
 20
8.641535
 30
0.0
 11
38.188846
 21
8.557860
 31
0.0
  0
LINE
  5
114
100
AcDbEntity
  8
0
 62
7
100
AcDbLine
 10
38.188846
 20
8.557860
 30
0.0
 11
37.581102
 21
8.306835
 31
0.0
  0
LINE
  5
115
100
AcDbEntity
  8
0
 62
7
100
AcDbLine
 10
37.581102
 20
8.306835
 30
0.0
 11
37.059836
 21
7.906026
 31
0.0
  0
LINE
  5
116
100
AcDbEntity
  8
0
 62
7
100
AcDbLine
 10
37.059836
 20
7.906026
 30
0.0
 11
36.666685
 21
7.392417
 31
0.0
  0
LINE
  5
117
100
AcDbEntity
  8
0
 62
7
100
AcDbLine
 10
36.666685
 20
7.392417
 30
0.0
 11
36.418462
 21
6.795133
 31
0.0
  0
LINE
  5
118
100
AcDbEntity
  8
0
 62
7
100
AcDbLine
 10
36.418462
 20
6.795133
 30
0.0
 11
36.331985
 21
6.143300
 31
0.0
  0
LINE
  5
119
100
AcDbEntity
  8
0
 62
7
100
AcDbLine
 10
36.331985
 20
6.143300
 30
0.0
 11
36.418462
 21
5.491466
 31
0.0
  0
LINE
  5
11a
100
AcDbEntity
  8
0
 62
7
100
AcDbLine
 10
36.418462
 20
5.491466
 30
0.0
 11
36.666685
 21
4.894182
 31
0.0
  0
LINE
  5
11b
100
AcDbEntity
  8
0
 62
7
100
AcDbLine
 10
36.666685
 20
4.894182
 30
0.0
 11
37.059836
 21
4.380573
 31
0.0
  0
LINE
  5
11c
100
AcDbEntity
  8
0
 62
7
100
AcDbLine
 10
37.059836
 20
4.380573
 30
0.0
 11
37.581102
 21
3.979764
 31
0.0
  0
LINE
  5
11d
100
AcDbEntity
  8
0
 62
7
100
AcDbLine
 10
37.581102
 20
3.979764
 30
0.0
 11
38.188846
 21
3.728739
 31
0.0
  0
LINE
  5
11e
100
AcDbEntity
  8
0
 62
7
100
AcDbLine
 10
38.188846
 20
3.728739
 30
0.0
 11
38.830220
 21
3.645064
 31
0.0
  0
LINE
  5
11f
100
AcDbEntity
  8
0
 62
7
100
AcDbLine
 10
38.830220
 20
3.645064
 30
0.0
 11
39.471594
 21
3.728739
 31
0.0
  0
LINE
  5
120
100
AcDbEntity
  8
0
 62
7
100
AcDbLine
 10
39.471594
 20
3.728739
 30
0.0
 11
40.079338
 21
3.979764
 31
0.0
  0
LINE
  5
121
100
AcDbEntity
  8
0
 62
7
100
AcDbLine
 10
40.079338
 20
3.979764
 30
0.0
 11
40.600603
 21
4.380573
 31
0.0
  0
LINE
  5
122
100
AcDbEntity
  8
0
 62
7
100
AcDbLine
 10
40.600603
 20
4.380573
 30
0.0
 11
40.993755
 21
4.894182
 31
0.0
  0
LINE
  5
123
100
AcDbEntity
  8
0
 62
7
100
AcDbLine
 10
40.993755
 20
4.894182
 30
0.0
 11
41.241978
 21
5.491466
 31
0.0
  0
LINE
  5
124
100
AcDbEntity
  8
0
 62
7
100
AcDbLine
 10
41.241978
 20
5.491466
 30
0.0
 11
41.328455
 21
6.143300
 31
0.0
  0
LINE
  5
125
100
AcDbEntity
  8
0
 62
7
100
AcDbLine
 10
41.328455
 20
6.143300
 30
0.0
 11
41.328455
 21
6.143300
 31
0.0
  0
LINE
  5
126
100
AcDbEntity
  8
0
 62
7
100
AcDbLine
 10
28.337634
 20
20.573113
 30
0.0
 11
28.251156
 21
21.224947
 31
0.0
  0
LINE
  5
127
100
AcDbEntity
  8
0
 62
7
100
AcDbLine
 10
28.251156
 20
21.224947
 30
0.0
 11
28.002934
 21
21.822231
 31
0.0
  0
LINE
  5
128
100
AcDbEntity
  8
0
 62
7
100
AcDbLine
 10
28.002934
 20
21.822231
 30
0.0
 11
27.609782
 21
22.335840
 31
0.0
  0
LINE
  5
129
100
AcDbEntity
  8
0
 62
7
100
AcDbLine
 10
27.609782
 20
22.335840
 30
0.0
 11
27.088516
 21
22.736649
 31
0.0
  0
LINE
  5
12a
100
AcDbEntity
  8
0
 62
7
100
AcDbLine
 10
27.088516
 20
22.736649
 30
0.0
 11
26.480772
 21
22.987674
 31
0.0
  0
LINE
  5
12b
100
AcDbEntity
  8
0
 62
7
100
AcDbLine
 10
26.480772
 20
22.987674
 30
0.0
 11
25.839398
 21
23.071349
 31
0.0
  0
LINE
  5
12c
100
AcDbEntity
  8
0
 62
7
100
AcDbLine
 10
25.839398
 20
23.071349
 30
0.0
 11
25.198023
 21
22.987674
 31
0.0
  0
LINE
  5
12d
100
AcDbEntity
  8
0
 62
7
100
AcDbLine
 10
25.198023
 20
22.987674
 30
0.0
 11
24.590280
 21
22.736649
 31
0.0
  0
LINE
  5
12e
100
AcDbEntity
  8
0
 62
7
100
AcDbLine
 10
24.590280
 20
22.736649
 30
0.0
 11
24.069014
 21
22.335840
 31
0.0
  0
LINE
  5
12f
100
AcDbEntity
  8
0
 62
7
100
AcDbLine
 10
24.069014
 20
22.335840
 30
0.0
 11
23.675862
 21
21.822231
 31
0.0
  0
LINE
  5
130
100
AcDbEntity
  8
0
 62
7
100
AcDbLine
 10
23.675862
 20
21.822231
 30
0.0
 11
23.427639
 21
21.224947
 31
0.0
  0
LINE
  5
131
100
AcDbEntity
  8
0
 62
7
100
AcDbLine
 10
23.427639
 20
21.224947
 30
0.0
 11
23.341162
 21
20.573113
 31
0.0
  0
LINE
  5
132
100
AcDbEntity
  8
0
 62
7
100
AcDbLine
 10
23.341162
 20
20.573113
 30
0.0
 11
23.427639
 21
19.921279
 31
0.0
  0
LINE
  5
133
100
AcDbEntity
  8
0
 62
7
100
AcDbLine
 10
23.427639
 20
19.921279
 30
0.0
 11
23.675862
 21
19.323995
 31
0.0
  0
LINE
  5
134
100
AcDbEntity
  8
0
 62
7
100
AcDbLine
 10
23.675862
 20
19.323995
 30
0.0
 11
24.069014
 21
18.810386
 31
0.0
  0
LINE
  5
135
100
AcDbEntity
  8
0
 62
7
100
AcDbLine
 10
24.069014
 20
18.810386
 30
0.0
 11
24.590280
 21
18.409577
 31
0.0
  0
LINE
  5
136
100
AcDbEntity
  8
0
 62
7
100
AcDbLine
 10
24.590280
 20
18.409577
 30
0.0
 11
25.198023
 21
18.158552
 31
0.0
  0
LINE
  5
137
100
AcDbEntity
  8
0
 62
7
100
AcDbLine
 10
25.198023
 20
18.158552
 30
0.0
 11
25.839398
 21
18.074877
 31
0.0
  0
LINE
  5
138
100
AcDbEntity
  8
0
 62
7
100
AcDbLine
 10
25.839398
 20
18.074877
 30
0.0
 11
26.480772
 21
18.158552
 31
0.0
  0
LINE
  5
139
100
AcDbEntity
  8
0
 62
7
100
AcDbLine
 10
26.480772
 20
18.158552
 30
0.0
 11
27.088516
 21
18.409577
 31
0.0
  0
LINE
  5
13a
100
AcDbEntity
  8
0
 62
7
100
AcDbLine
 10
27.088516
 20
18.409577
 30
0.0
 11
27.609782
 21
18.810386
 31
0.0
  0
LINE
  5
13b
100
AcDbEntity
  8
0
 62
7
100
AcDbLine
 10
27.609782
 20
18.810386
 30
0.0
 11
28.002934
 21
19.323995
 31
0.0
  0
LINE
  5
13c
100
AcDbEntity
  8
0
 62
7
100
AcDbLine
 10
28.002934
 20
19.323995
 30
0.0
 11
28.251156
 21
19.921279
 31
0.0
  0
LINE
  5
13d
100
AcDbEntity
  8
0
 62
7
100
AcDbLine
 10
28.251156
 20
19.921279
 30
0.0
 11
28.337634
 21
20.573113
 31
0.0
  0
LINE
  5
13e
100
AcDbEntity
  8
0
 62
7
100
AcDbLine
 10
28.337634
 20
20.573113
 30
0.0
 11
28.337634
 21
20.573113
 31
0.0
  0
LINE
  5
13f
100
AcDbEntity
  8
0
 62
7
100
AcDbLine
 10
28.337634
 20
6.143300
 30
0.0
 11
28.251156
 21
6.795133
 31
0.0
  0
LINE
  5
140
100
AcDbEntity
  8
0
 62
7
100
AcDbLine
 10
28.251156
 20
6.795133
 30
0.0
 11
28.002934
 21
7.392418
 31
0.0
  0
LINE
  5
141
100
AcDbEntity
  8
0
 62
7
100
AcDbLine
 10
28.002934
 20
7.392418
 30
0.0
 11
27.609782
 21
7.906027
 31
0.0
  0
LINE
  5
142
100
AcDbEntity
  8
0
 62
7
100
AcDbLine
 10
27.609782
 20
7.906027
 30
0.0
 11
27.088516
 21
8.306835
 31
0.0
  0
LINE
  5
143
100
AcDbEntity
  8
0
 62
7
100
AcDbLine
 10
27.088516
 20
8.306835
 30
0.0
 11
26.480772
 21
8.557861
 31
0.0
  0
LINE
  5
144
100
AcDbEntity
  8
0
 62
7
100
AcDbLine
 10
26.480772
 20
8.557861
 30
0.0
 11
25.839398
 21
8.641536
 31
0.0
  0
LINE
  5
145
100
AcDbEntity
  8
0
 62
7
100
AcDbLine
 10
25.839398
 20
8.641536
 30
0.0
 11
25.198023
 21
8.557861
 31
0.0
  0
LINE
  5
146
100
AcDbEntity
  8
0
 62
7
100
AcDbLine
 10
25.198023
 20
8.557861
 30
0.0
 11
24.590280
 21
8.306835
 31
0.0
  0
LINE
  5
147
100
AcDbEntity
  8
0
 62
7
100
AcDbLine
 10
24.590280
 20
8.306835
 30
0.0
 11
24.069014
 21
7.906027
 31
0.0
  0
LINE
  5
148
100
AcDbEntity
  8
0
 62
7
100
AcDbLine
 10
24.069014
 20
7.906027
 30
0.0
 11
23.675862
 21
7.392418
 31
0.0
  0
LINE
  5
149
100
AcDbEntity
  8
0
 62
7
100
AcDbLine
 10
23.675862
 20
7.392418
 30
0.0
 11
23.427639
 21
6.795133
 31
0.0
  0
LINE
  5
14a
100
AcDbEntity
  8
0
 62
7
100
AcDbLine
 10
23.427639
 20
6.795133
 30
0.0
 11
23.341162
 21
6.143300
 31
0.0
  0
LINE
  5
14b
100
AcDbEntity
  8
0
 62
7
100
AcDbLine
 10
23.341162
 20
6.143300
 30
0.0
 11
23.427639
 21
5.491466
 31
0.0
  0
LINE
  5
14c
100
AcDbEntity
  8
0
 62
7
100
AcDbLine
 10
23.427639
 20
5.491466
 30
0.0
 11
23.675862
 21
4.894182
 31
0.0
  0
LINE
  5
14d
100
AcDbEntity
  8
0
 62
7
100
AcDbLine
 10
23.675862
 20
4.894182
 30
0.0
 11
24.069014
 21
4.380572
 31
0.0
  0
LINE
  5
14e
100
AcDbEntity
  8
0
 62
7
100
AcDbLine
 10
24.069014
 20
4.380572
 30
0.0
 11
24.590280
 21
3.979764
 31
0.0
  0
LINE
  5
14f
100
AcDbEntity
  8
0
 62
7
100
AcDbLine
 10
24.590280
 20
3.979764
 30
0.0
 11
25.198023
 21
3.728739
 31
0.0
  0
LINE
  5
150
100
AcDbEntity
  8
0
 62
7
100
AcDbLine
 10
25.198023
 20
3.728739
 30
0.0
 11
25.839398
 21
3.645064
 31
0.0
  0
LINE
  5
151
100
AcDbEntity
  8
0
 62
7
100
AcDbLine
 10
25.839398
 20
3.645064
 30
0.0
 11
26.480772
 21
3.728739
 31
0.0
  0
LINE
  5
152
100
AcDbEntity
  8
0
 62
7
100
AcDbLine
 10
26.480772
 20
3.728739
 30
0.0
 11
27.088516
 21
3.979764
 31
0.0
  0
LINE
  5
153
100
AcDbEntity
  8
0
 62
7
100
AcDbLine
 10
27.088516
 20
3.979764
 30
0.0
 11
27.609782
 21
4.380572
 31
0.0
  0
LINE
  5
154
100
AcDbEntity
  8
0
 62
7
100
AcDbLine
 10
27.609782
 20
4.380572
 30
0.0
 11
28.002934
 21
4.894182
 31
0.0
  0
LINE
  5
155
100
AcDbEntity
  8
0
 62
7
100
AcDbLine
 10
28.002934
 20
4.894182
 30
0.0
 11
28.251156
 21
5.491466
 31
0.0
  0
LINE
  5
156
100
AcDbEntity
  8
0
 62
7
100
AcDbLine
 10
28.251156
 20
5.491466
 30
0.0
 11
28.337634
 21
6.143300
 31
0.0
  0
LINE
  5
157
100
AcDbEntity
  8
0
 62
7
100
AcDbLine
 10
28.337634
 20
6.143300
 30
0.0
 11
28.337634
 21
6.143300
 31
0.0
  0
LINE
  5
158
100
AcDbEntity
  8
0
 62
7
100
AcDbLine
 10
12.508815
 20
13.358226
 30
0.0
 11
12.422337
 21
14.010060
 31
0.0
  0
LINE
  5
159
100
AcDbEntity
  8
0
 62
7
100
AcDbLine
 10
12.422337
 20
14.010060
 30
0.0
 11
12.174115
 21
14.607344
 31
0.0
  0
LINE
  5
15a
100
AcDbEntity
  8
0
 62
7
100
AcDbLine
 10
12.174115
 20
14.607344
 30
0.0
 11
11.780963
 21
15.120953
 31
0.0
  0
LINE
  5
15b
100
AcDbEntity
  8
0
 62
7
100
AcDbLine
 10
11.780963
 20
15.120953
 30
0.0
 11
11.259697
 21
15.521761
 31
0.0
  0
LINE
  5
15c
100
AcDbEntity
  8
0
 62
7
100
AcDbLine
 10
11.259697
 20
15.521761
 30
0.0
 11
10.651954
 21
15.772786
 31
0.0
  0
LINE
  5
15d
100
AcDbEntity
  8
0
 62
7
100
AcDbLine
 10
10.651954
 20
15.772786
 30
0.0
 11
10.010579
 21
15.856461
 31
0.0
  0
LINE
  5
15e
100
AcDbEntity
  8
0
 62
7
100
AcDbLine
 10
10.010579
 20
15.856461
 30
0.0
 11
9.369205
 21
15.772786
 31
0.0
  0
LINE
  5
15f
100
AcDbEntity
  8
0
 62
7
100
AcDbLine
 10
9.369205
 20
15.772786
 30
0.0
 11
8.761462
 21
15.521761
 31
0.0
  0
LINE
  5
160
100
AcDbEntity
  8
0
 62
7
100
AcDbLine
 10
8.761462
 20
15.521761
 30
0.0
 11
8.240196
 21
15.120953
 31
0.0
  0
LINE
  5
161
100
AcDbEntity
  8
0
 62
7
100
AcDbLine
 10
8.240196
 20
15.120953
 30
0.0
 11
7.847044
 21
14.607344
 31
0.0
  0
LINE
  5
162
100
AcDbEntity
  8
0
 62
7
100
AcDbLine
 10
7.847044
 20
14.607344
 30
0.0
 11
7.598822
 21
14.010060
 31
0.0
  0
LINE
  5
163
100
AcDbEntity
  8
0
 62
7
100
AcDbLine
 10
7.598822
 20
14.010060
 30
0.0
 11
7.512344
 21
13.358226
 31
0.0
  0
LINE
  5
164
100
AcDbEntity
  8
0
 62
7
100
AcDbLine
 10
7.512344
 20
13.358226
 30
0.0
 11
7.598822
 21
12.706392
 31
0.0
  0
LINE
  5
165
100
AcDbEntity
  8
0
 62
7
100
AcDbLine
 10
7.598822
 20
12.706392
 30
0.0
 11
7.847044
 21
12.109108
 31
0.0
  0
LINE
  5
166
100
AcDbEntity
  8
0
 62
7
100
AcDbLine
 10
7.847044
 20
12.109108
 30
0.0
 11
8.240196
 21
11.595500
 31
0.0
  0
LINE
  5
167
100
AcDbEntity
  8
0
 62
7
100
AcDbLine
 10
8.240196
 20
11.595500
 30
0.0
 11
8.761462
 21
11.194691
 31
0.0
  0
LINE
  5
168
100
AcDbEntity
  8
0
 62
7
100
AcDbLine
 10
8.761462
 20
11.194691
 30
0.0
 11
9.369205
 21
10.943666
 31
0.0
  0
LINE
  5
169
100
AcDbEntity
  8
0
 62
7
100
AcDbLine
 10
9.369205
 20
10.943666
 30
0.0
 11
10.010579
 21
10.859991
 31
0.0
  0
LINE
  5
16a
100
AcDbEntity
  8
0
 62
7
100
AcDbLine
 10
10.010579
 20
10.859991
 30
0.0
 11
10.651954
 21
10.943666
 31
0.0
  0
LINE
  5
16b
100
AcDbEntity
  8
0
 62
7
100
AcDbLine
 10
10.651954
 20
10.943666
 30
0.0
 11
11.259697
 21
11.194691
 31
0.0
  0
LINE
  5
16c
100
AcDbEntity
  8
0
 62
7
100
AcDbLine
 10
11.259697
 20
11.194691
 30
0.0
 11
11.780963
 21
11.595500
 31
0.0
  0
LINE
  5
16d
100
AcDbEntity
  8
0
 62
7
100
AcDbLine
 10
11.780963
 20
11.595500
 30
0.0
 11
12.174115
 21
12.109108
 31
0.0
  0
LINE
  5
16e
100
AcDbEntity
  8
0
 62
7
100
AcDbLine
 10
12.174115
 20
12.109108
 30
0.0
 11
12.422337
 21
12.706392
 31
0.0
  0
LINE
  5
16f
100
AcDbEntity
  8
0
 62
7
100
AcDbLine
 10
12.422337
 20
12.706392
 30
0.0
 11
12.508815
 21
13.358226
 31
0.0
  0
LINE
  5
170
100
AcDbEntity
  8
0
 62
7
100
AcDbLine
 10
12.508815
 20
13.358226
 30
0.0
 11
12.508815
 21
13.358226
 31
0.0
  0
LINE
  5
171
100
AcDbEntity
  8
0
 62
7
100
AcDbLine
 10
41.328455
 20
20.573113
 30
0.0
 11
41.241978
 21
21.224947
 31
0.0
  0
LINE
  5
172
100
AcDbEntity
  8
0
 62
7
100
AcDbLine
 10
41.241978
 20
21.224947
 30
0.0
 11
40.993755
 21
21.822231
 31
0.0
  0
LINE
  5
173
100
AcDbEntity
  8
0
 62
7
100
AcDbLine
 10
40.993755
 20
21.822231
 30
0.0
 11
40.600603
 21
22.335840
 31
0.0
  0
LINE
  5
174
100
AcDbEntity
  8
0
 62
7
100
AcDbLine
 10
40.600603
 20
22.335840
 30
0.0
 11
40.079338
 21
22.736648
 31
0.0
  0
LINE
  5
175
100
AcDbEntity
  8
0
 62
7
100
AcDbLine
 10
40.079338
 20
22.736648
 30
0.0
 11
39.471594
 21
22.987673
 31
0.0
  0
LINE
  5
176
100
AcDbEntity
  8
0
 62
7
100
AcDbLine
 10
39.471594
 20
22.987673
 30
0.0
 11
38.830220
 21
23.071348
 31
0.0
  0
LINE
  5
177
100
AcDbEntity
  8
0
 62
7
100
AcDbLine
 10
38.830220
 20
23.071348
 30
0.0
 11
38.188846
 21
22.987673
 31
0.0
  0
LINE
  5
178
100
AcDbEntity
  8
0
 62
7
100
AcDbLine
 10
38.188846
 20
22.987673
 30
0.0
 11
37.581102
 21
22.736648
 31
0.0
  0
LINE
  5
179
100
AcDbEntity
  8
0
 62
7
100
AcDbLine
 10
37.581102
 20
22.736648
 30
0.0
 11
37.059836
 21
22.335840
 31
0.0
  0
LINE
  5
17a
100
AcDbEntity
  8
0
 62
7
100
AcDbLine
 10
37.059836
 20
22.335840
 30
0.0
 11
36.666685
 21
21.822231
 31
0.0
  0
LINE
  5
17b
100
AcDbEntity
  8
0
 62
7
100
AcDbLine
 10
36.666685
 20
21.822231
 30
0.0
 11
36.418462
 21
21.224947
 31
0.0
  0
LINE
  5
17c
100
AcDbEntity
  8
0
 62
7
100
AcDbLine
 10
36.418462
 20
21.224947
 30
0.0
 11
36.331985
 21
20.573113
 31
0.0
  0
LINE
  5
17d
100
AcDbEntity
  8
0
 62
7
100
AcDbLine
 10
36.331985
 20
20.573113
 30
0.0
 11
36.418462
 21
19.921279
 31
0.0
  0
LINE
  5
17e
100
AcDbEntity
  8
0
 62
7
100
AcDbLine
 10
36.418462
 20
19.921279
 30
0.0
 11
36.666685
 21
19.323995
 31
0.0
  0
LINE
  5
17f
100
AcDbEntity
  8
0
 62
7
100
AcDbLine
 10
36.666685
 20
19.323995
 30
0.0
 11
37.059836
 21
18.810386
 31
0.0
  0
LINE
  5
180
100
AcDbEntity
  8
0
 62
7
100
AcDbLine
 10
37.059836
 20
18.810386
 30
0.0
 11
37.581102
 21
18.409578
 31
0.0
  0
LINE
  5
181
100
AcDbEntity
  8
0
 62
7
100
AcDbLine
 10
37.581102
 20
18.409578
 30
0.0
 11
38.188846
 21
18.158553
 31
0.0
  0
LINE
  5
182
100
AcDbEntity
  8
0
 62
7
100
AcDbLine
 10
38.188846
 20
18.158553
 30
0.0
 11
38.830220
 21
18.074878
 31
0.0
  0
LINE
  5
183
100
AcDbEntity
  8
0
 62
7
100
AcDbLine
 10
38.830220
 20
18.074878
 30
0.0
 11
39.471594
 21
18.158553
 31
0.0
  0
LINE
  5
184
100
AcDbEntity
  8
0
 62
7
100
AcDbLine
 10
39.471594
 20
18.158553
 30
0.0
 11
40.079338
 21
18.409578
 31
0.0
  0
LINE
  5
185
100
AcDbEntity
  8
0
 62
7
100
AcDbLine
 10
40.079338
 20
18.409578
 30
0.0
 11
40.600603
 21
18.810386
 31
0.0
  0
LINE
  5
186
100
AcDbEntity
  8
0
 62
7
100
AcDbLine
 10
40.600603
 20
18.810386
 30
0.0
 11
40.993755
 21
19.323995
 31
0.0
  0
LINE
  5
187
100
AcDbEntity
  8
0
 62
7
100
AcDbLine
 10
40.993755
 20
19.323995
 30
0.0
 11
41.241978
 21
19.921279
 31
0.0
  0
LINE
  5
188
100
AcDbEntity
  8
0
 62
7
100
AcDbLine
 10
41.241978
 20
19.921279
 30
0.0
 11
41.328455
 21
20.573113
 31
0.0
  0
LINE
  5
189
100
AcDbEntity
  8
0
 62
7
100
AcDbLine
 10
41.328455
 20
20.573113
 30
0.0
 11
41.328455
 21
20.573113
 31
0.0
  0
LINE
  5
18a
100
AcDbEntity
  8
0
 62
7
100
AcDbLine
 10
47.134353
 20
21.352557
 30
0.0
 11
47.080801
 21
21.552416
 31
0.0
  0
LINE
  5
18b
100
AcDbEntity
  8
0
 62
7
100
AcDbLine
 10
47.080801
 20
21.552416
 30
0.0
 11
46.934494
 21
21.698723
 31
0.0
  0
LINE
  5
18c
100
AcDbEntity
  8
0
 62
7
100
AcDbLine
 10
46.934494
 20
21.698723
 30
0.0
 11
46.734635
 21
21.752276
 31
0.0
  0
LINE
  5
18d
100
AcDbEntity
  8
0
 62
7
100
AcDbLine
 10
46.734635
 20
21.752276
 30
0.0
 11
46.534776
 21
21.698723
 31
0.0
  0
LINE
  5
18e
100
AcDbEntity
  8
0
 62
7
100
AcDbLine
 10
46.534776
 20
21.698723
 30
0.0
 11
46.388469
 21
21.552416
 31
0.0
  0
LINE
  5
18f
100
AcDbEntity
  8
0
 62
7
100
AcDbLine
 10
46.388469
 20
21.552416
 30
0.0
 11
46.334917
 21
21.352557
 31
0.0
  0
LINE
  5
190
100
AcDbEntity
  8
0
 62
7
100
AcDbLine
 10
46.334917
 20
21.352557
 30
0.0
 11
46.388469
 21
21.152698
 31
0.0
  0
LINE
  5
191
100
AcDbEntity
  8
0
 62
7
100
AcDbLine
 10
46.388469
 20
21.152698
 30
0.0
 11
46.534776
 21
21.006391
 31
0.0
  0
LINE
  5
192
100
AcDbEntity
  8
0
 62
7
100
AcDbLine
 10
46.534776
 20
21.006391
 30
0.0
 11
46.734635
 21
20.952839
 31
0.0
  0
LINE
  5
193
100
AcDbEntity
  8
0
 62
7
100
AcDbLine
 10
46.734635
 20
20.952839
 30
0.0
 11
46.934494
 21
21.006391
 31
0.0
  0
LINE
  5
194
100
AcDbEntity
  8
0
 62
7
100
AcDbLine
 10
46.934494
 20
21.006391
 30
0.0
 11
47.080801
 21
21.152698
 31
0.0
  0
LINE
  5
195
100
AcDbEntity
  8
0
 62
7
100
AcDbLine
 10
47.080801
 20
21.152698
 30
0.0
 11
47.134353
 21
21.352557
 31
0.0
  0
LINE
  5
196
100
AcDbEntity
  8
0
 62
7
100
AcDbLine
 10
47.134353
 20
21.352557
 30
0.0
 11
47.134353
 21
21.352557
 31
0.0
  0
LINE
  5
197
100
AcDbEntity
  8
0
 62
7
100
AcDbLine
 10
10.810015
 20
13.358226
 30
0.0
 11
10.703011
 21
13.758071
 31
0.0
  0
LINE
  5
198
100
AcDbEntity
  8
0
 62
7
100
AcDbLine
 10
10.703011
 20
13.758071
 30
0.0
 11
10.410384
 21
14.050808
 31
0.0
  0
LINE
  5
199
100
AcDbEntity
  8
0
 62
7
100
AcDbLine
 10
10.410384
 20
14.050808
 30
0.0
 11
10.010579
 21
14.157962
 31
0.0
  0
LINE
  5
19a
100
AcDbEntity
  8
0
 62
7
100
AcDbLine
 10
10.010579
 20
14.157962
 30
0.0
 11
9.610775
 21
14.050808
 31
0.0
  0
LINE
  5
19b
100
AcDbEntity
  8
0
 62
7
100
AcDbLine
 10
9.610775
 20
14.050808
 30
0.0
 11
9.318148
 21
13.758071
 31
0.0
  0
LINE
  5
19c
100
AcDbEntity
  8
0
 62
7
100
AcDbLine
 10
9.318148
 20
13.758071
 30
0.0
 11
9.211144
 21
13.358226
 31
0.0
  0
LINE
  5
19d
100
AcDbEntity
  8
0
 62
7
100
AcDbLine
 10
9.211144
 20
13.358226
 30
0.0
 11
9.318148
 21
12.958381
 31
0.0
  0
LINE
  5
19e
100
AcDbEntity
  8
0
 62
7
100
AcDbLine
 10
9.318148
 20
12.958381
 30
0.0
 11
9.610775
 21
12.665644
 31
0.0
  0
LINE
  5
19f
100
AcDbEntity
  8
0
 62
7
100
AcDbLine
 10
9.610775
 20
12.665644
 30
0.0
 11
10.010579
 21
12.558490
 31
0.0
  0
LINE
  5
1a0
100
AcDbEntity
  8
0
 62
7
100
AcDbLine
 10
10.010579
 20
12.558490
 30
0.0
 11
10.410384
 21
12.665644
 31
0.0
  0
LINE
  5
1a1
100
AcDbEntity
  8
0
 62
7
100
AcDbLine
 10
10.410384
 20
12.665644
 30
0.0
 11
10.703011
 21
12.958381
 31
0.0
  0
LINE
  5
1a2
100
AcDbEntity
  8
0
 62
7
100
AcDbLine
 10
10.703011
 20
12.958381
 30
0.0
 11
10.810015
 21
13.358226
 31
0.0
  0
LINE
  5
1a3
100
AcDbEntity
  8
0
 62
7
100
AcDbLine
 10
10.810015
 20
13.358226
 30
0.0
 11
10.810015
 21
13.358226
 31
0.0
  0
LINE
  5
1a4
100
AcDbEntity
  8
0
 62
7
100
AcDbLine
 10
4.420322
 20
20.595857
 30
0.0
 11
0.745381
 21
18.390892
 31
0.0
  0
LINE
  5
1a5
100
AcDbEntity
  8
0
 62
7
100
AcDbLine
 10
14.235851
 20
26.485172
 30
0.0
 11
10.560910
 21
24.280209
 31
0.0
  0
LINE
  5
1a6
100
AcDbEntity
  8
0
 62
7
100
AcDbLine
 10
48.483398
 20
26.698786
 30
0.0
 11
15.007050
 21
26.698786
 31
0.0
  0
LINE
  5
1a7
100
AcDbEntity
  8
0
 62
7
100
AcDbLine
 10
49.982340
 20
20.644352
 30
0.0
 11
49.982340
 21
25.199842
 31
0.0
  0
LINE
  5
1a8
100
AcDbEntity
  8
0
 62
7
100
AcDbLine
 10
49.982340
 20
1.516548
 30
0.0
 11
49.982340
 21
6.072067
 31
0.0
  0
LINE
  5
1a9
100
AcDbEntity
  8
0
 62
7
100
AcDbLine
 10
15.007050
 20
0.017638
 30
0.0
 11
48.483398
 21
0.017638
 31
0.0
  0
LINE
  5
1aa
100
AcDbEntity
  8
0
 62
7
100
AcDbLine
 10
10.825586
 20
2.277391
 30
0.0
 11
14.235851
 21
0.231252
 31
0.0
  0
LINE
  5
1ab
100
AcDbEntity
  8
0
 62
7
100
AcDbLine
 10
6.212175
 20
6.793511
 30
0.0
 11
10.311454
 21
4.333945
 31
0.0
  0
LINE
  5
1ac
100
AcDbEntity
  8
0
 62
7
100
AcDbLine
 10
0.745381
 20
8.325526
 30
0.0
 11
4.155645
 21
6.279359
 31
0.0
  0
LINE
  5
1ad
100
AcDbEntity
  8
0
 62
7
100
AcDbLine
 10
0.017639
 20
17.105561
 30
0.0
 11
0.017639
 21
9.610823
 31
0.0
  0
LINE
  5
1ae
100
AcDbEntity
  8
0
 62
7
100
AcDbLine
 10
48.483398
 20
8.361764
 30
0.0
 11
48.483398
 21
18.354677
 31
0.0
  0
LINE
  5
1af
100
AcDbEntity
  8
0
 62
7
100
AcDbLine
 10
10.046777
 20
22.223678
 30
0.0
 11
6.476852
 21
20.081725
 31
0.0
  0
LINE
  5
1b0
100
AcDbEntity
  8
0
 62
7
100
AcDbLine
 10
0.745381
 20
18.390892
 30
0.0
 11
0.212202
 21
17.844087
 31
0.0
  0
LINE
  5
1b1
100
AcDbEntity
  8
0
 62
7
100
AcDbLine
 10
0.212202
 20
17.844087
 30
0.0
 11
0.017639
 21
17.105561
 31
0.0
  0
LINE
  5
1b2
100
AcDbEntity
  8
0
 62
7
100
AcDbLine
 10
10.046777
 20
22.223678
 30
0.0
 11
10.479949
 21
22.616643
 31
0.0
  0
LINE
  5
1b3
100
AcDbEntity
  8
0
 62
7
100
AcDbLine
 10
10.479949
 20
22.616643
 30
0.0
 11
10.729765
 21
23.145463
 31
0.0
  0
LINE
  5
1b4
100
AcDbEntity
  8
0
 62
7
100
AcDbLine
 10
10.729765
 20
23.145463
 30
0.0
 11
10.758195
 21
23.729630
 31
0.0
  0
LINE
  5
1b5
100
AcDbEntity
  8
0
 62
7
100
AcDbLine
 10
10.758195
 20
23.729630
 30
0.0
 11
10.560910
 21
24.280209
 31
0.0
  0
LINE
  5
1b6
100
AcDbEntity
  8
0
 62
7
100
AcDbLine
 10
15.007050
 20
26.698786
 30
0.0
 11
14.606932
 21
26.644395
 31
0.0
  0
LINE
  5
1b7
100
AcDbEntity
  8
0
 62
7
100
AcDbLine
 10
14.606932
 20
26.644395
 30
0.0
 11
14.235851
 21
26.485172
 31
0.0
  0
LINE
  5
1b8
100
AcDbEntity
  8
0
 62
7
100
AcDbLine
 10
49.982340
 20
25.199842
 30
0.0
 11
49.868240
 21
25.773463
 31
0.0
  0
LINE
  5
1b9
100
AcDbEntity
  8
0
 62
7
100
AcDbLine
 10
49.868240
 20
25.773463
 30
0.0
 11
49.543311
 21
26.259755
 31
0.0
  0
LINE
  5
1ba
100
AcDbEntity
  8
0
 62
7
100
AcDbLine
 10
49.543311
 20
26.259755
 30
0.0
 11
49.057019
 21
26.584686
 31
0.0
  0
LINE
  5
1bb
100
AcDbEntity
  8
0
 62
7
100
AcDbLine
 10
49.057019
 20
26.584686
 30
0.0
 11
48.483398
 21
26.698786
 31
0.0
  0
LINE
  5
1bc
100
AcDbEntity
  8
0
 62
7
100
AcDbLine
 10
48.483398
 20
8.361764
 30
0.0
 11
48.547107
 21
7.929190
 31
0.0
  0
LINE
  5
1bd
100
AcDbEntity
  8
0
 62
7
100
AcDbLine
 10
48.547107
 20
7.929190
 30
0.0
 11
48.728236
 21
7.540760
 31
0.0
  0
LINE
  5
1be
100
AcDbEntity
  8
0
 62
7
100
AcDbLine
 10
48.728236
 20
7.540760
 30
0.0
 11
49.011787
 21
7.219382
 31
0.0
  0
LINE
  5
1bf
100
AcDbEntity
  8
0
 62
7
100
AcDbLine
 10
49.011787
 20
7.219382
 30
0.0
 11
49.382764
 21
6.987962
 31
0.0
  0
LINE
  5
1c0
100
AcDbEntity
  8
0
 62
7
100
AcDbLine
 10
48.483398
 20
0.017638
 30
0.0
 11
49.066846
 21
0.135429
 31
0.0
  0
LINE
  5
1c1
100
AcDbEntity
  8
0
 62
7
100
AcDbLine
 10
49.066846
 20
0.135429
 30
0.0
 11
49.543299
 21
0.456657
 31
0.0
  0
LINE
  5
1c2
100
AcDbEntity
  8
0
 62
7
100
AcDbLine
 10
49.543299
 20
0.456657
 30
0.0
 11
49.864537
 21
0.933103
 31
0.0
  0
LINE
  5
1c3
100
AcDbEntity
  8
0
 62
7
100
AcDbLine
 10
49.864537
 20
0.933103
 30
0.0
 11
49.982340
 21
1.516548
 31
0.0
  0
LINE
  5
1c4
100
AcDbEntity
  8
0
 62
7
100
AcDbLine
 10
14.235851
 20
0.231252
 30
0.0
 11
14.606932
 21
0.072029
 31
0.0
  0
LINE
  5
1c5
100
AcDbEntity
  8
0
 62
7
100
AcDbLine
 10
14.606932
 20
0.072029
 30
0.0
 11
15.007050
 21
0.017638
 31
0.0
  0
LINE
  5
1c6
100
AcDbEntity
  8
0
 62
7
100
AcDbLine
 10
10.825586
 20
2.277391
 30
0.0
 11
11.022880
 21
2.827976
 31
0.0
  0
LINE
  5
1c7
100
AcDbEntity
  8
0
 62
7
100
AcDbLine
 10
11.022880
 20
2.827976
 30
0.0
 11
10.994453
 21
3.412150
 31
0.0
  0
LINE
  5
1c8
100
AcDbEntity
  8
0
 62
7
100
AcDbLine
 10
10.994453
 20
3.412150
 30
0.0
 11
10.744633
 21
3.940977
 31
0.0
  0
LINE
  5
1c9
100
AcDbEntity
  8
0
 62
7
100
AcDbLine
 10
10.744633
 20
3.940977
 30
0.0
 11
10.311454
 21
4.333945
 31
0.0
  0
LINE
  5
1ca
100
AcDbEntity
  8
0
 62
7
100
AcDbLine
 10
6.212175
 20
6.793511
 30
0.0
 11
5.661593
 21
6.990793
 31
0.0
  0
LINE
  5
1cb
100
AcDbEntity
  8
0
 62
7
100
AcDbLine
 10
5.661593
 20
6.990793
 30
0.0
 11
5.077426
 21
6.962358
 31
0.0
  0
LINE
  5
1cc
100
AcDbEntity
  8
0
 62
7
100
AcDbLine
 10
5.077426
 20
6.962358
 30
0.0
 11
4.548607
 21
6.712535
 31
0.0
  0
LINE
  5
1cd
100
AcDbEntity
  8
0
 62
7
100
AcDbLine
 10
4.548607
 20
6.712535
 30
0.0
 11
4.155645
 21
6.279359
 31
0.0
  0
LINE
  5
1ce
100
AcDbEntity
  8
0
 62
7
100
AcDbLine
 10
49.982340
 20
6.072067
 30
0.0
 11
49.819123
 21
6.619418
 31
0.0
  0
LINE
  5
1cf
100
AcDbEntity
  8
0
 62
7
100
AcDbLine
 10
49.819123
 20
6.619418
 30
0.0
 11
49.382764
 21
6.987962
 31
0.0
  0
LINE
  5
1d0
100
AcDbEntity
  8
0
 62
7
100
AcDbLine
 10
0.017639
 20
9.610823
 30
0.0
 11
0.212210
 21
8.872316
 31
0.0
  0
LINE
  5
1d1
100
AcDbEntity
  8
0
 62
7
100
AcDbLine
 10
0.212210
 20
8.872316
 30
0.0
 11
0.745381
 21
8.325526
 31
0.0
  0
LINE
  5
1d2
100
AcDbEntity
  8
0
 62
7
100
AcDbLine
 10
49.382764
 20
19.728481
 30
0.0
 11
49.819116
 21
20.097014
 31
0.0
  0
LINE
  5
1d3
100
AcDbEntity
  8
0
 62
7
100
AcDbLine
 10
49.819116
 20
20.097014
 30
0.0
 11
49.982340
 21
20.644352
 31
0.0
  0
LINE
  5
1d4
100
AcDbEntity
  8
0
 62
7
100
AcDbLine
 10
49.382764
 20
19.728481
 30
0.0
 11
49.011787
 21
19.497062
 31
0.0
  0
LINE
  5
1d5
100
AcDbEntity
  8
0
 62
7
100
AcDbLine
 10
49.011787
 20
19.497062
 30
0.0
 11
48.728235
 21
19.175682
 31
0.0
  0
LINE
  5
1d6
100
AcDbEntity
  8
0
 62
7
100
AcDbLine
 10
48.728235
 20
19.175682
 30
0.0
 11
48.547107
 21
18.787251
 31
0.0
  0
LINE
  5
1d7
100
AcDbEntity
  8
0
 62
7
100
AcDbLine
 10
48.547107
 20
18.787251
 30
0.0
 11
48.483398
 21
18.354677
 31
0.0
  0
LINE
  5
1d8
100
AcDbEntity
  8
0
 62
7
100
AcDbLine
 10
4.420322
 20
20.595857
 30
0.0
 11
4.813287
 21
20.162686
 31
0.0
  0
LINE
  5
1d9
100
AcDbEntity
  8
0
 62
7
100
AcDbLine
 10
4.813287
 20
20.162686
 30
0.0
 11
5.342106
 21
19.912870
 31
0.0
  0
LINE
  5
1da
100
AcDbEntity
  8
0
 62
7
100
AcDbLine
 10
5.342106
 20
19.912870
 30
0.0
 11
5.926273
 21
19.884440
 31
0.0
  0
LINE
  5
1db
100
AcDbEntity
  8
0
 62
7
100
AcDbLine
 10
5.926273
 20
19.884440
 30
0.0
 11
6.476852
 21
20.081725
 31
0.0
  0
ENDSEC
  0
SECTION
  2
OBJECTS
  0
DICTIONARY
  5
C
330
0
100
AcDbDictionary
  3
ACAD_GROUP
350
D
  3
ACAD_MLINESTYLE
350
17
  0
DICTIONARY
  5
D
330
C
100
AcDbDictionary
  0
DICTIONARY
  5
1A
330
C
100
AcDbDictionary
  0
DICTIONARY
  5
17
330
C
100
AcDbDictionary
  3
STANDARD
350
18
  0
DICTIONARY
  5
19
330
C
100
AcDbDictionary
  0
ENDSEC
  0
EOF
