  0
SECTION
  2
HEADER
  9
$ACADVER
  1
AC1014
  9
$HANDSEED
  5
FFFF
  9
$MEASUREMENT
 70
     1
  0
ENDSEC
  0
SECTION
  2
TABLES
  0
TABLE
  2
VPORT
  5
8
330
0
100
AcDbSymbolTable
 70
     4
  0
VPORT
  5
2E
330
8
100
AcDbSymbolTableRecord
100
AcDbViewportTableRecord
  2
*ACTIVE
 70
     0
 10
0.0
 20
0.0
 11
1.0
 21
1.0
 12
210.0
 22
148.5
 13
0.0
 23
0.0
 14
10.0
 24
10.0
 15
10.0
 25
10.0
 16
0.0
 26
0.0
 36
1.0
 17
0.0
 27
0.0
 37
0.0
 40
341.0
 41
1.24
 42
50.0
 43
0.0
 44
0.0
 50
0.0
 51
0.0
 71
     0
 72
   100
 73
     1
 74
     3
 75
     0
 76
     0
 77
     0
 78
     0
  0
ENDTAB
  0
TABLE
  2
LTYPE
  5
5
330
0
100
AcDbSymbolTable
 70
     1
  0
LTYPE
  5
14
330
5
100
AcDbSymbolTableRecord
100
AcDbLinetypeTableRecord
  2
BYBLOCK
 70
     0
  3

 72
    65
 73
     0
 40
0.0
  0
LTYPE
  5
15
330
5
100
AcDbSymbolTableRecord
100
AcDbLinetypeTableRecord
  2
BYLAYER
 70
     0
  3

 72
    65
 73
     0
 40
0.0
  0
LTYPE
  5
16
330
5
100
AcDbSymbolTableRecord
100
AcDbLinetypeTableRecord
  2
CONTINUOUS
 70
     0
  3
Solid line
 72
    65
 73
     0
 40
0.0
  0
ENDTAB
  0
TABLE
  2
LAYER
  5
2
100
AcDbSymbolTable
 70
1
  0
LAYER
  5
50
100
AcDbSymbolTableRecord
100
AcDbLayerTableRecord
  2
0
 70
0
  6
CONTINUOUS
  0
ENDTAB
  0
TABLE
  2
STYLE
  5
3
330
0
100
AcDbSymbolTable
 70
     1
  0
STYLE
  5
11
330
3
100
AcDbSymbolTableRecord
100
AcDbTextStyleTableRecord
  2
STANDARD
 70
     0
 40
0.0
 41
1.0
 50
0.0
 71
     0
 42
2.5
  3
txt
  4

  0
ENDTAB
  0
TABLE
  2
VIEW
  5
6
330
0
100
AcDbSymbolTable
 70
     0
  0
ENDTAB
  0
TABLE
  2
UCS
  5
7
330
0
100
AcDbSymbolTable
 70
     0
  0
ENDTAB
  0
TABLE
  2
APPID
  5
9
330
0
100
AcDbSymbolTable
 70
     2
  0
APPID
  5
12
330
9
100
AcDbSymbolTableRecord
100
AcDbRegAppTableRecord
  2
ACAD
 70
     0
  0
ENDTAB
  0
TABLE
  2
DIMSTYLE
  5
A
330
0
100
AcDbSymbolTable
 70
     1
  0
DIMSTYLE
105
27
330
A
100
AcDbSymbolTableRecord
100
AcDbDimStyleTableRecord
  2
ISO-25
 70
     0
  3

  4

  5

  6

  7

 40
1.0
 41
2.5
 42
0.625
 43
3.75
 44
1.25
 45
0.0
 46
0.0
 47
0.0
 48
0.0
140
2.5
141
2.5
142
0.0
143
0.03937007874016
144
1.0
145
0.0
146
1.0
147
0.625
 71
     0
 72
     0
 73
     0
 74
     0
 75
     0
 76
     0
 77
     1
 78
     8
170
     0
171
     3
172
     1
173
     0
174
     0
175
     0
176
     0
177
     0
178
     0
270
     2
271
     2
272
     2
273
     2
274
     3
340
11
275
     0
280
     0
281
     0
282
     0
283
     0
284
     8
285
     0
286
     0
287
     3
288
     0
  0
ENDTAB
  0
TABLE
  2
BLOCK_RECORD
  5
1
330
0
100
AcDbSymbolTable
 70
     1
  0
BLOCK_RECORD
  5
1F
330
1
100
AcDbSymbolTableRecord
100
AcDbBlockTableRecord
  2
*MODEL_SPACE
  0
BLOCK_RECORD
  5
1B
330
1
100
AcDbSymbolTableRecord
100
AcDbBlockTableRecord
  2
*PAPER_SPACE
  0
ENDTAB
  0
ENDSEC
  0
SECTION
  2
BLOCKS
  0
BLOCK
  5
20
330
1F
100
AcDbEntity
  8
0
100
AcDbBlockBegin
  2
*MODEL_SPACE
 70
     0
 10
0.0
 20
0.0
 30
0.0
  3
*MODEL_SPACE
  1

  0
ENDBLK
  5
21
330
1F
100
AcDbEntity
  8
0
100
AcDbBlockEnd
  0
BLOCK
  5
1C
330
1B
100
AcDbEntity
 67
     1
  8
0
100
AcDbBlockBegin
  2
*PAPER_SPACE
  1

  0
ENDBLK
  5
1D
330
1B
100
AcDbEntity
 67
     1
  8
0
100
AcDbBlockEnd
  0
ENDSEC
  0
SECTION
  2
ENTITIES
  0
SPLINE
  5
100
100
AcDbEntity
  8
0
 62
7
100
AcDbSpline
 70
8
 71
3
 72
8
 73
4
 74
0
 40
0
 40
0
 40
0
 40
0
 40
1
 40
1
 40
1
 40
1
 10
0.070439
 20
11.339429
 30
0.0
 10
0.070447
 20
10.840036
 30
0.0
 10
0.348159
 20
10.349534
 30
0.0
 10
0.776395
 20
10.092599
 30
0.0
  0
LWPOLYLINE
  5
101
100
AcDbEntity
  8
0
 62
7
100
AcDbPolyline
 90
2
 70
0
 10
0.070439
 20
20.427365
 30
0.0
 10
0.070439
 20
11.339429
 30
0.0
  0
SPLINE
  5
102
100
AcDbEntity
  8
0
 62
7
100
AcDbSpline
 70
8
 71
3
 72
8
 73
4
 74
0
 40
0
 40
0
 40
0
 40
0
 40
1
 40
1
 40
1
 40
1
 10
4.626056
 20
7.782808
 30
0.0
 10
5.289467
 20
8.557959
 30
0.0
 10
6.530438
 20
8.759805
 30
0.0
 10
7.405316
 20
8.234871
 30
0.0
  0
LWPOLYLINE
  5
103
100
AcDbEntity
  8
0
 62
7
100
AcDbPolyline
 90
2
 70
0
 10
0.776395
 20
10.092599
 30
0.0
 10
4.626056
 20
7.782808
 30
0.0
  0
SPLINE
  5
104
100
AcDbEntity
  8
0
 62
7
100
AcDbSpline
 70
8
 71
3
 72
8
 73
4
 74
0
 40
0
 40
0
 40
0
 40
0
 40
1
 40
1
 40
1
 40
1
 10
12.376016
 20
5.252460
 30
0.0
 10
13.250894
 20
4.727526
 30
0.0
 10
13.656764
 20
3.537565
 30
0.0
 10
13.284997
 20
2.587436
 30
0.0
  0
LWPOLYLINE
  5
105
100
AcDbEntity
  8
0
 62
7
100
AcDbPolyline
 90
2
 70
0
 10
7.405316
 20
8.234871
 30
0.0
 10
12.376016
 20
5.252460
 30
0.0
  0
SPLINE
  5
106
100
AcDbEntity
  8
0
 62
7
100
AcDbSpline
 70
8
 71
3
 72
8
 73
4
 74
0
 40
0
 40
0
 40
0
 40
0
 40
1
 40
1
 40
1
 40
1
 10
17.134657
 20
0.277645
 30
0.0
 10
17.359266
 20
0.142883
 30
0.0
 10
17.620835
 20
0.070437
 30
0.0
 10
17.882770
 20
0.070437
 30
0.0
  0
LWPOLYLINE
  5
107
100
AcDbEntity
  8
0
 62
7
100
AcDbPolyline
 90
2
 70
0
 10
13.284997
 20
2.587436
 30
0.0
 10
17.134657
 20
0.277645
 30
0.0
  0
SPLINE
  5
108
100
AcDbEntity
  8
0
 62
7
100
AcDbSpline
 70
8
 71
3
 72
8
 73
4
 74
0
 40
0
 40
0
 40
0
 40
0
 40
1
 40
1
 40
1
 40
1
 10
58.475496
 20
0.070437
 30
0.0
 10
59.236844
 20
0.070437
 30
0.0
 10
59.929564
 20
0.763151
 30
0.0
 10
59.929564
 20
1.524502
 30
0.0
  0
LWPOLYLINE
  5
109
100
AcDbEntity
  8
0
 62
7
100
AcDbPolyline
 90
2
 70
0
 10
17.882770
 20
0.070437
 30
0.0
 10
58.475496
 20
0.070437
 30
0.0
  0
SPLINE
  5
10a
100
AcDbEntity
  8
0
 62
7
100
AcDbSpline
 70
8
 71
3
 72
8
 73
4
 74
0
 40
0
 40
0
 40
0
 40
0
 40
1
 40
1
 40
1
 40
1
 10
59.929564
 20
7.048381
 30
0.0
 10
59.929559
 20
7.376154
 30
0.0
 10
59.721042
 20
7.694670
 30
0.0
 10
59.420639
 20
7.825762
 30
0.0
  0
SPLINE
  5
10b
100
AcDbEntity
  8
0
 62
7
100
AcDbSpline
 70
8
 71
3
 72
8
 73
4
 74
0
 40
0
 40
0
 40
0
 40
0
 40
1
 40
1
 40
1
 40
1
 10
59.420639
 20
7.825762
 30
0.0
 10
58.648160
 20
8.162905
 30
0.0
 10
58.111971
 20
8.981942
 30
0.0
 10
58.111980
 20
9.824798
 30
0.0
  0
LWPOLYLINE
  5
10c
100
AcDbEntity
  8
0
 62
7
100
AcDbPolyline
 90
2
 70
0
 10
59.929564
 20
1.524502
 30
0.0
 10
59.929564
 20
7.048381
 30
0.0
  0
SPLINE
  5
10d
100
AcDbEntity
  8
0
 62
7
100
AcDbSpline
 70
8
 71
3
 72
8
 73
4
 74
0
 40
0
 40
0
 40
0
 40
0
 40
1
 40
1
 40
1
 40
1
 10
58.111980
 20
21.942018
 30
0.0
 10
58.111980
 20
22.784852
 30
0.0
 10
58.648168
 20
23.603898
 30
0.0
 10
59.420639
 20
23.941032
 30
0.0
  0
SPLINE
  5
10e
100
AcDbEntity
  8
0
 62
7
100
AcDbSpline
 70
8
 71
3
 72
8
 73
4
 74
0
 40
0
 40
0
 40
0
 40
0
 40
1
 40
1
 40
1
 40
1
 10
59.420639
 20
23.941032
 30
0.0
 10
59.721044
 20
24.072138
 30
0.0
 10
59.929564
 20
24.390654
 30
0.0
 10
59.929564
 20
24.718424
 30
0.0
  0
LWPOLYLINE
  5
10f
100
AcDbEntity
  8
0
 62
7
100
AcDbPolyline
 90
2
 70
0
 10
58.111980
 20
9.824798
 30
0.0
 10
58.111980
 20
21.942018
 30
0.0
  0
SPLINE
  5
110
100
AcDbEntity
  8
0
 62
7
100
AcDbSpline
 70
8
 71
3
 72
8
 73
4
 74
0
 40
0
 40
0
 40
0
 40
0
 40
1
 40
1
 40
1
 40
1
 10
59.929564
 20
30.242320
 30
0.0
 10
59.929564
 20
31.003668
 30
0.0
 10
59.236844
 20
31.696389
 30
0.0
 10
58.475496
 20
31.696389
 30
0.0
  0
LWPOLYLINE
  5
111
100
AcDbEntity
  8
0
 62
7
100
AcDbPolyline
 90
2
 70
0
 10
59.929564
 20
24.718424
 30
0.0
 10
59.929564
 20
30.242320
 30
0.0
  0
SPLINE
  5
112
100
AcDbEntity
  8
0
 62
7
100
AcDbSpline
 70
8
 71
3
 72
8
 73
4
 74
0
 40
0
 40
0
 40
0
 40
0
 40
1
 40
1
 40
1
 40
1
 10
17.882770
 20
31.696389
 30
0.0
 10
17.620834
 20
31.696389
 30
0.0
 10
17.359266
 20
31.623939
 30
0.0
 10
17.134657
 20
31.489175
 30
0.0
  0
LWPOLYLINE
  5
113
100
AcDbEntity
  8
0
 62
7
100
AcDbPolyline
 90
2
 70
0
 10
58.475496
 20
31.696389
 30
0.0
 10
17.882770
 20
31.696389
 30
0.0
  0
SPLINE
  5
114
100
AcDbEntity
  8
0
 62
7
100
AcDbSpline
 70
8
 71
3
 72
8
 73
4
 74
0
 40
0
 40
0
 40
0
 40
0
 40
1
 40
1
 40
1
 40
1
 10
12.964056
 20
28.986812
 30
0.0
 10
13.335830
 20
28.036677
 30
0.0
 10
12.929959
 20
26.846704
 30
0.0
 10
12.055075
 20
26.321774
 30
0.0
  0
LWPOLYLINE
  5
115
100
AcDbEntity
  8
0
 62
7
100
AcDbPolyline
 90
2
 70
0
 10
17.134657
 20
31.489175
 30
0.0
 10
12.964056
 20
28.986812
 30
0.0
  0
SPLINE
  5
116
100
AcDbEntity
  8
0
 62
7
100
AcDbSpline
 70
8
 71
3
 72
8
 73
4
 74
0
 40
0
 40
0
 40
0
 40
0
 40
1
 40
1
 40
1
 40
1
 10
7.726257
 20
23.724483
 30
0.0
 10
6.851372
 20
23.199552
 30
0.0
 10
5.610399
 20
23.401417
 30
0.0
 10
4.946997
 20
24.176577
 30
0.0
  0
LWPOLYLINE
  5
117
100
AcDbEntity
  8
0
 62
7
100
AcDbPolyline
 90
2
 70
0
 10
12.055075
 20
26.321774
 30
0.0
 10
7.726257
 20
23.724483
 30
0.0
  0
SPLINE
  5
118
100
AcDbEntity
  8
0
 62
7
100
AcDbSpline
 70
8
 71
3
 72
8
 73
4
 74
0
 40
0
 40
0
 40
0
 40
0
 40
1
 40
1
 40
1
 40
1
 10
0.776395
 20
21.674217
 30
0.0
 10
0.348152
 20
21.417271
 30
0.0
 10
0.070439
 20
20.926777
 30
0.0
 10
0.070439
 20
20.427365
 30
0.0
  0
LWPOLYLINE
  5
119
100
AcDbEntity
  8
0
 62
7
100
AcDbPolyline
 90
2
 70
0
 10
4.946997
 20
24.176577
 30
0.0
 10
0.776395
 20
21.674217
 30
0.0
  0
SPLINE
  5
11a
100
AcDbEntity
  8
0
 62
7
100
AcDbSpline
 70
8
 71
3
 72
8
 73
4
 74
0
 40
0
 40
0
 40
0
 40
0
 40
1
 40
1
 40
1
 40
1
 10
56.839668
 20
25.577187
 30
0.0
 10
56.840160
 20
25.831280
 30
0.0
 10
56.609076
 20
26.062812
 30
0.0
 10
56.354980
 20
26.062812
 30
0.0
  0
SPLINE
  5
11b
100
AcDbEntity
  8
0
 62
7
100
AcDbSpline
 70
8
 71
3
 72
8
 73
4
 74
0
 40
0
 40
0
 40
0
 40
0
 40
1
 40
1
 40
1
 40
1
 10
56.354980
 20
26.062812
 30
0.0
 10
56.100884
 20
26.062812
 30
0.0
 10
55.869800
 20
25.831280
 30
0.0
 10
55.870292
 20
25.577187
 30
0.0
  0
SPLINE
  5
11c
100
AcDbEntity
  8
0
 62
7
100
AcDbSpline
 70
8
 71
3
 72
8
 73
4
 74
0
 40
0
 40
0
 40
0
 40
0
 40
1
 40
1
 40
1
 40
1
 10
55.870292
 20
25.577187
 30
0.0
 10
55.870780
 20
25.323718
 30
0.0
 10
56.101508
 20
25.093433
 30
0.0
 10
56.354980
 20
25.093433
 30
0.0
  0
SPLINE
  5
11d
100
AcDbEntity
  8
0
 62
7
100
AcDbSpline
 70
8
 71
3
 72
8
 73
4
 74
0
 40
0
 40
0
 40
0
 40
0
 40
1
 40
1
 40
1
 40
1
 10
56.354980
 20
25.093433
 30
0.0
 10
56.608452
 20
25.093433
 30
0.0
 10
56.839180
 20
25.323718
 30
0.0
 10
56.839668
 20
25.577187
 30
0.0
  0
LWPOLYLINE
  5
11e
100
AcDbEntity
  8
0
 62
7
100
AcDbPolyline
 90
2
 70
0
 10
0.070439
 20
20.427365
 30
0.0
 10
0.070439
 20
20.427365
 30
0.0
  0
SPLINE
  5
11f
100
AcDbEntity
  8
0
 62
7
100
AcDbSpline
 70
8
 71
3
 72
8
 73
4
 74
0
 40
0
 40
0
 40
0
 40
0
 40
1
 40
1
 40
1
 40
1
 10
49.799559
 20
24.632042
 30
0.0
 10
49.799559
 20
25.425112
 30
0.0
 10
49.473081
 20
26.213302
 30
0.0
 10
48.912295
 20
26.774086
 30
0.0
  0
SPLINE
  5
120
100
AcDbEntity
  8
0
 62
7
100
AcDbSpline
 70
8
 71
3
 72
8
 73
4
 74
0
 40
0
 40
0
 40
0
 40
0
 40
1
 40
1
 40
1
 40
1
 10
48.912295
 20
26.774086
 30
0.0
 10
48.351508
 20
27.334873
 30
0.0
 10
47.563320
 20
27.661350
 30
0.0
 10
46.770250
 20
27.661350
 30
0.0
  0
SPLINE
  5
121
100
AcDbEntity
  8
0
 62
7
100
AcDbSpline
 70
8
 71
3
 72
8
 73
4
 74
0
 40
0
 40
0
 40
0
 40
0
 40
1
 40
1
 40
1
 40
1
 10
46.770250
 20
27.661350
 30
0.0
 10
45.977181
 20
27.661350
 30
0.0
 10
45.188993
 20
27.334873
 30
0.0
 10
44.628206
 20
26.774086
 30
0.0
  0
SPLINE
  5
122
100
AcDbEntity
  8
0
 62
7
100
AcDbSpline
 70
8
 71
3
 72
8
 73
4
 74
0
 40
0
 40
0
 40
0
 40
0
 40
1
 40
1
 40
1
 40
1
 10
44.628206
 20
26.774086
 30
0.0
 10
44.067420
 20
26.213302
 30
0.0
 10
43.740942
 20
25.425112
 30
0.0
 10
43.740942
 20
24.632042
 30
0.0
  0
SPLINE
  5
123
100
AcDbEntity
  8
0
 62
7
100
AcDbSpline
 70
8
 71
3
 72
8
 73
4
 74
0
 40
0
 40
0
 40
0
 40
0
 40
1
 40
1
 40
1
 40
1
 10
43.740942
 20
24.632042
 30
0.0
 10
43.740942
 20
23.838972
 30
0.0
 10
44.067420
 20
23.050782
 30
0.0
 10
44.628206
 20
22.489998
 30
0.0
  0
SPLINE
  5
124
100
AcDbEntity
  8
0
 62
7
100
AcDbSpline
 70
8
 71
3
 72
8
 73
4
 74
0
 40
0
 40
0
 40
0
 40
0
 40
1
 40
1
 40
1
 40
1
 10
44.628206
 20
22.489998
 30
0.0
 10
45.188993
 20
21.929211
 30
0.0
 10
45.977181
 20
21.602733
 30
0.0
 10
46.770250
 20
21.602733
 30
0.0
  0
SPLINE
  5
125
100
AcDbEntity
  8
0
 62
7
100
AcDbSpline
 70
8
 71
3
 72
8
 73
4
 74
0
 40
0
 40
0
 40
0
 40
0
 40
1
 40
1
 40
1
 40
1
 10
46.770250
 20
21.602733
 30
0.0
 10
47.563320
 20
21.602733
 30
0.0
 10
48.351508
 20
21.929211
 30
0.0
 10
48.912295
 20
22.489998
 30
0.0
  0
SPLINE
  5
126
100
AcDbEntity
  8
0
 62
7
100
AcDbSpline
 70
8
 71
3
 72
8
 73
4
 74
0
 40
0
 40
0
 40
0
 40
0
 40
1
 40
1
 40
1
 40
1
 10
48.912295
 20
22.489998
 30
0.0
 10
49.473081
 20
23.050782
 30
0.0
 10
49.799559
 20
23.838972
 30
0.0
 10
49.799559
 20
24.632042
 30
0.0
  0
LWPOLYLINE
  5
127
100
AcDbEntity
  8
0
 62
7
100
AcDbPolyline
 90
2
 70
0
 10
56.839668
 20
25.577187
 30
0.0
 10
56.839668
 20
25.577187
 30
0.0
  0
SPLINE
  5
128
100
AcDbEntity
  8
0
 62
7
100
AcDbSpline
 70
8
 71
3
 72
8
 73
4
 74
0
 40
0
 40
0
 40
0
 40
0
 40
1
 40
1
 40
1
 40
1
 10
14.853461
 20
15.883401
 30
0.0
 10
14.853703
 20
16.676626
 30
0.0
 10
14.527334
 20
17.465062
 30
0.0
 10
13.966524
 20
18.026044
 30
0.0
  0
SPLINE
  5
129
100
AcDbEntity
  8
0
 62
7
100
AcDbSpline
 70
8
 71
3
 72
8
 73
4
 74
0
 40
0
 40
0
 40
0
 40
0
 40
1
 40
1
 40
1
 40
1
 10
13.966524
 20
18.026044
 30
0.0
 10
13.405715
 20
18.587022
 30
0.0
 10
12.617378
 20
18.913632
 30
0.0
 10
11.824153
 20
18.913632
 30
0.0
  0
SPLINE
  5
12a
100
AcDbEntity
  8
0
 62
7
100
AcDbSpline
 70
8
 71
3
 72
8
 73
4
 74
0
 40
0
 40
0
 40
0
 40
0
 40
1
 40
1
 40
1
 40
1
 10
11.824153
 20
18.913632
 30
0.0
 10
11.030928
 20
18.913632
 30
0.0
 10
10.242591
 20
18.587022
 30
0.0
 10
9.681782
 20
18.026044
 30
0.0
  0
SPLINE
  5
12b
100
AcDbEntity
  8
0
 62
7
100
AcDbSpline
 70
8
 71
3
 72
8
 73
4
 74
0
 40
0
 40
0
 40
0
 40
0
 40
1
 40
1
 40
1
 40
1
 10
9.681782
 20
18.026044
 30
0.0
 10
9.120973
 20
17.465062
 30
0.0
 10
8.794603
 20
16.676626
 30
0.0
 10
8.794845
 20
15.883401
 30
0.0
  0
SPLINE
  5
12c
100
AcDbEntity
  8
0
 62
7
100
AcDbSpline
 70
8
 71
3
 72
8
 73
4
 74
0
 40
0
 40
0
 40
0
 40
0
 40
1
 40
1
 40
1
 40
1
 10
8.794845
 20
15.883401
 30
0.0
 10
8.795087
 20
15.090484
 30
0.0
 10
9.121673
 20
14.302545
 30
0.0
 10
9.682436
 20
13.741955
 30
0.0
  0
SPLINE
  5
12d
100
AcDbEntity
  8
0
 62
7
100
AcDbSpline
 70
8
 71
3
 72
8
 73
4
 74
0
 40
0
 40
0
 40
0
 40
0
 40
1
 40
1
 40
1
 40
1
 10
9.682436
 20
13.741955
 30
0.0
 10
10.243198
 20
13.181352
 30
0.0
 10
11.031236
 20
12.855018
 30
0.0
 10
11.824153
 20
12.855018
 30
0.0
  0
SPLINE
  5
12e
100
AcDbEntity
  8
0
 62
7
100
AcDbSpline
 70
8
 71
3
 72
8
 73
4
 74
0
 40
0
 40
0
 40
0
 40
0
 40
1
 40
1
 40
1
 40
1
 10
11.824153
 20
12.855018
 30
0.0
 10
12.617070
 20
12.855018
 30
0.0
 10
13.405108
 20
13.181352
 30
0.0
 10
13.965871
 20
13.741955
 30
0.0
  0
SPLINE
  5
12f
100
AcDbEntity
  8
0
 62
7
100
AcDbSpline
 70
8
 71
3
 72
8
 73
4
 74
0
 40
0
 40
0
 40
0
 40
0
 40
1
 40
1
 40
1
 40
1
 10
13.965871
 20
13.741955
 30
0.0
 10
14.526633
 20
14.302545
 30
0.0
 10
14.853219
 20
15.090484
 30
0.0
 10
14.853461
 20
15.883401
 30
0.0
  0
LWPOLYLINE
  5
130
100
AcDbEntity
  8
0
 62
7
100
AcDbPolyline
 90
2
 70
0
 10
49.799559
 20
24.632042
 30
0.0
 10
49.799559
 20
24.632042
 30
0.0
  0
SPLINE
  5
131
100
AcDbEntity
  8
0
 62
7
100
AcDbSpline
 70
8
 71
3
 72
8
 73
4
 74
0
 40
0
 40
0
 40
0
 40
0
 40
1
 40
1
 40
1
 40
1
 10
34.047156
 20
7.134741
 30
0.0
 10
34.047749
 20
7.928180
 30
0.0
 10
33.721537
 20
8.716992
 30
0.0
 10
33.160693
 20
9.278247
 30
0.0
  0
SPLINE
  5
132
100
AcDbEntity
  8
0
 62
7
100
AcDbSpline
 70
8
 71
3
 72
8
 73
4
 74
0
 40
0
 40
0
 40
0
 40
0
 40
1
 40
1
 40
1
 40
1
 10
33.160693
 20
9.278247
 30
0.0
 10
32.599850
 20
9.839502
 30
0.0
 10
31.811299
 20
10.166316
 30
0.0
 10
31.017851
 20
10.166316
 30
0.0
  0
SPLINE
  5
133
100
AcDbEntity
  8
0
 62
7
100
AcDbSpline
 70
8
 71
3
 72
8
 73
4
 74
0
 40
0
 40
0
 40
0
 40
0
 40
1
 40
1
 40
1
 40
1
 10
31.017851
 20
10.166316
 30
0.0
 10
30.224400
 20
10.166316
 30
0.0
 10
29.435848
 20
9.839502
 30
0.0
 10
28.875005
 20
9.278247
 30
0.0
  0
SPLINE
  5
134
100
AcDbEntity
  8
0
 62
7
100
AcDbSpline
 70
8
 71
3
 72
8
 73
4
 74
0
 40
0
 40
0
 40
0
 40
0
 40
1
 40
1
 40
1
 40
1
 10
28.875005
 20
9.278247
 30
0.0
 10
28.314162
 20
8.716992
 30
0.0
 10
27.987949
 20
7.928180
 30
0.0
 10
27.988542
 20
7.134741
 30
0.0
  0
SPLINE
  5
135
100
AcDbEntity
  8
0
 62
7
100
AcDbSpline
 70
8
 71
3
 72
8
 73
4
 74
0
 40
0
 40
0
 40
0
 40
0
 40
1
 40
1
 40
1
 40
1
 10
27.988542
 20
7.134741
 30
0.0
 10
27.989135
 20
6.342035
 30
0.0
 10
28.315878
 20
5.554466
 30
0.0
 10
28.876605
 20
4.994170
 30
0.0
  0
SPLINE
  5
136
100
AcDbEntity
  8
0
 62
7
100
AcDbSpline
 70
8
 71
3
 72
8
 73
4
 74
0
 40
0
 40
0
 40
0
 40
0
 40
1
 40
1
 40
1
 40
1
 10
28.876605
 20
4.994170
 30
0.0
 10
29.437336
 20
4.433846
 30
0.0
 10
30.225156
 20
4.107710
 30
0.0
 10
31.017851
 20
4.107710
 30
0.0
  0
SPLINE
  5
137
100
AcDbEntity
  8
0
 62
7
100
AcDbSpline
 70
8
 71
3
 72
8
 73
4
 74
0
 40
0
 40
0
 40
0
 40
0
 40
1
 40
1
 40
1
 40
1
 10
31.017851
 20
4.107710
 30
0.0
 10
31.810542
 20
4.107710
 30
0.0
 10
32.598363
 20
4.433846
 30
0.0
 10
33.159093
 20
4.994170
 30
0.0
  0
SPLINE
  5
138
100
AcDbEntity
  8
0
 62
7
100
AcDbSpline
 70
8
 71
3
 72
8
 73
4
 74
0
 40
0
 40
0
 40
0
 40
0
 40
1
 40
1
 40
1
 40
1
 10
33.159093
 20
4.994170
 30
0.0
 10
33.719821
 20
5.554466
 30
0.0
 10
34.046564
 20
6.342035
 30
0.0
 10
34.047156
 20
7.134741
 30
0.0
  0
LWPOLYLINE
  5
139
100
AcDbEntity
  8
0
 62
7
100
AcDbPolyline
 90
2
 70
0
 10
14.853461
 20
15.883401
 30
0.0
 10
14.853461
 20
15.883401
 30
0.0
  0
SPLINE
  5
13a
100
AcDbEntity
  8
0
 62
7
100
AcDbSpline
 70
8
 71
3
 72
8
 73
4
 74
0
 40
0
 40
0
 40
0
 40
0
 40
1
 40
1
 40
1
 40
1
 10
34.047156
 20
24.632042
 30
0.0
 10
34.047749
 20
25.425490
 30
0.0
 10
33.721537
 20
26.214287
 30
0.0
 10
33.160693
 20
26.775551
 30
0.0
  0
SPLINE
  5
13b
100
AcDbEntity
  8
0
 62
7
100
AcDbSpline
 70
8
 71
3
 72
8
 73
4
 74
0
 40
0
 40
0
 40
0
 40
0
 40
1
 40
1
 40
1
 40
1
 10
33.160693
 20
26.775551
 30
0.0
 10
32.599850
 20
27.336812
 30
0.0
 10
31.811299
 20
27.663614
 30
0.0
 10
31.017851
 20
27.663614
 30
0.0
  0
SPLINE
  5
13c
100
AcDbEntity
  8
0
 62
7
100
AcDbSpline
 70
8
 71
3
 72
8
 73
4
 74
0
 40
0
 40
0
 40
0
 40
0
 40
1
 40
1
 40
1
 40
1
 10
31.017851
 20
27.663614
 30
0.0
 10
30.224400
 20
27.663614
 30
0.0
 10
29.435848
 20
27.336812
 30
0.0
 10
28.875005
 20
26.775551
 30
0.0
  0
SPLINE
  5
13d
100
AcDbEntity
  8
0
 62
7
100
AcDbSpline
 70
8
 71
3
 72
8
 73
4
 74
0
 40
0
 40
0
 40
0
 40
0
 40
1
 40
1
 40
1
 40
1
 10
28.875005
 20
26.775551
 30
0.0
 10
28.314162
 20
26.214287
 30
0.0
 10
27.987949
 20
25.425490
 30
0.0
 10
27.988542
 20
24.632042
 30
0.0
  0
SPLINE
  5
13e
100
AcDbEntity
  8
0
 62
7
100
AcDbSpline
 70
8
 71
3
 72
8
 73
4
 74
0
 40
0
 40
0
 40
0
 40
0
 40
1
 40
1
 40
1
 40
1
 10
27.988542
 20
24.632042
 30
0.0
 10
27.989135
 20
23.839347
 30
0.0
 10
28.315878
 20
23.051772
 30
0.0
 10
28.876605
 20
22.491462
 30
0.0
  0
SPLINE
  5
13f
100
AcDbEntity
  8
0
 62
7
100
AcDbSpline
 70
8
 71
3
 72
8
 73
4
 74
0
 40
0
 40
0
 40
0
 40
0
 40
1
 40
1
 40
1
 40
1
 10
28.876605
 20
22.491462
 30
0.0
 10
29.437336
 20
21.931152
 30
0.0
 10
30.225156
 20
21.605000
 30
0.0
 10
31.017851
 20
21.605000
 30
0.0
  0
SPLINE
  5
140
100
AcDbEntity
  8
0
 62
7
100
AcDbSpline
 70
8
 71
3
 72
8
 73
4
 74
0
 40
0
 40
0
 40
0
 40
0
 40
1
 40
1
 40
1
 40
1
 10
31.017851
 20
21.605000
 30
0.0
 10
31.810542
 20
21.605000
 30
0.0
 10
32.598363
 20
21.931152
 30
0.0
 10
33.159093
 20
22.491462
 30
0.0
  0
SPLINE
  5
141
100
AcDbEntity
  8
0
 62
7
100
AcDbSpline
 70
8
 71
3
 72
8
 73
4
 74
0
 40
0
 40
0
 40
0
 40
0
 40
1
 40
1
 40
1
 40
1
 10
33.159093
 20
22.491462
 30
0.0
 10
33.719821
 20
23.051772
 30
0.0
 10
34.046564
 20
23.839347
 30
0.0
 10
34.047156
 20
24.632042
 30
0.0
  0
LWPOLYLINE
  5
142
100
AcDbEntity
  8
0
 62
7
100
AcDbPolyline
 90
2
 70
0
 10
34.047156
 20
7.134741
 30
0.0
 10
34.047156
 20
7.134741
 30
0.0
  0
SPLINE
  5
143
100
AcDbEntity
  8
0
 62
7
100
AcDbSpline
 70
8
 71
3
 72
8
 73
4
 74
0
 40
0
 40
0
 40
0
 40
0
 40
1
 40
1
 40
1
 40
1
 10
49.799559
 20
7.134741
 30
0.0
 10
49.799559
 20
7.927814
 30
0.0
 10
49.473081
 20
8.716004
 30
0.0
 10
48.912295
 20
9.276779
 30
0.0
  0
SPLINE
  5
144
100
AcDbEntity
  8
0
 62
7
100
AcDbSpline
 70
8
 71
3
 72
8
 73
4
 74
0
 40
0
 40
0
 40
0
 40
0
 40
1
 40
1
 40
1
 40
1
 10
48.912295
 20
9.276779
 30
0.0
 10
48.351508
 20
9.837583
 30
0.0
 10
47.563320
 20
10.164058
 30
0.0
 10
46.770250
 20
10.164058
 30
0.0
  0
SPLINE
  5
145
100
AcDbEntity
  8
0
 62
7
100
AcDbSpline
 70
8
 71
3
 72
8
 73
4
 74
0
 40
0
 40
0
 40
0
 40
0
 40
1
 40
1
 40
1
 40
1
 10
46.770250
 20
10.164058
 30
0.0
 10
45.977181
 20
10.164058
 30
0.0
 10
45.188993
 20
9.837583
 30
0.0
 10
44.628206
 20
9.276779
 30
0.0
  0
SPLINE
  5
146
100
AcDbEntity
  8
0
 62
7
100
AcDbSpline
 70
8
 71
3
 72
8
 73
4
 74
0
 40
0
 40
0
 40
0
 40
0
 40
1
 40
1
 40
1
 40
1
 10
44.628206
 20
9.276779
 30
0.0
 10
44.067420
 20
8.716004
 30
0.0
 10
43.740942
 20
7.927814
 30
0.0
 10
43.740942
 20
7.134741
 30
0.0
  0
SPLINE
  5
147
100
AcDbEntity
  8
0
 62
7
100
AcDbSpline
 70
8
 71
3
 72
8
 73
4
 74
0
 40
0
 40
0
 40
0
 40
0
 40
1
 40
1
 40
1
 40
1
 10
43.740942
 20
7.134741
 30
0.0
 10
43.740942
 20
6.341668
 30
0.0
 10
44.067420
 20
5.553478
 30
0.0
 10
44.628206
 20
4.992702
 30
0.0
  0
SPLINE
  5
148
100
AcDbEntity
  8
0
 62
7
100
AcDbSpline
 70
8
 71
3
 72
8
 73
4
 74
0
 40
0
 40
0
 40
0
 40
0
 40
1
 40
1
 40
1
 40
1
 10
44.628206
 20
4.992702
 30
0.0
 10
45.188993
 20
4.431899
 30
0.0
 10
45.977181
 20
4.105424
 30
0.0
 10
46.770250
 20
4.105424
 30
0.0
  0
SPLINE
  5
149
100
AcDbEntity
  8
0
 62
7
100
AcDbSpline
 70
8
 71
3
 72
8
 73
4
 74
0
 40
0
 40
0
 40
0
 40
0
 40
1
 40
1
 40
1
 40
1
 10
46.770250
 20
4.105424
 30
0.0
 10
47.563320
 20
4.105424
 30
0.0
 10
48.351508
 20
4.431899
 30
0.0
 10
48.912295
 20
4.992702
 30
0.0
  0
SPLINE
  5
14a
100
AcDbEntity
  8
0
 62
7
100
AcDbSpline
 70
8
 71
3
 72
8
 73
4
 74
0
 40
0
 40
0
 40
0
 40
0
 40
1
 40
1
 40
1
 40
1
 10
48.912295
 20
4.992702
 30
0.0
 10
49.473081
 20
5.553478
 30
0.0
 10
49.799559
 20
6.341668
 30
0.0
 10
49.799559
 20
7.134741
 30
0.0
  0
LWPOLYLINE
  5
14b
100
AcDbEntity
  8
0
 62
7
100
AcDbPolyline
 90
2
 70
0
 10
34.047156
 20
24.632042
 30
0.0
 10
34.047156
 20
24.632042
 30
0.0
  0
SPLINE
  5
14c
100
AcDbEntity
  8
0
 62
7
100
AcDbSpline
 70
8
 71
3
 72
8
 73
4
 74
0
 40
0
 40
0
 40
0
 40
0
 40
1
 40
1
 40
1
 40
1
 10
56.839668
 20
6.189607
 30
0.0
 10
56.840160
 20
6.443692
 30
0.0
 10
56.609076
 20
6.675227
 30
0.0
 10
56.354980
 20
6.675227
 30
0.0
  0
SPLINE
  5
14d
100
AcDbEntity
  8
0
 62
7
100
AcDbSpline
 70
8
 71
3
 72
8
 73
4
 74
0
 40
0
 40
0
 40
0
 40
0
 40
1
 40
1
 40
1
 40
1
 10
56.354980
 20
6.675227
 30
0.0
 10
56.100884
 20
6.675227
 30
0.0
 10
55.869800
 20
6.443692
 30
0.0
 10
55.870292
 20
6.189607
 30
0.0
  0
SPLINE
  5
14e
100
AcDbEntity
  8
0
 62
7
100
AcDbSpline
 70
8
 71
3
 72
8
 73
4
 74
0
 40
0
 40
0
 40
0
 40
0
 40
1
 40
1
 40
1
 40
1
 10
55.870292
 20
6.189607
 30
0.0
 10
55.870780
 20
5.936143
 30
0.0
 10
56.101508
 20
5.705850
 30
0.0
 10
56.354980
 20
5.705850
 30
0.0
  0
SPLINE
  5
14f
100
AcDbEntity
  8
0
 62
7
100
AcDbSpline
 70
8
 71
3
 72
8
 73
4
 74
0
 40
0
 40
0
 40
0
 40
0
 40
1
 40
1
 40
1
 40
1
 10
56.354980
 20
5.705850
 30
0.0
 10
56.608452
 20
5.705850
 30
0.0
 10
56.839180
 20
5.936143
 30
0.0
 10
56.839668
 20
6.189607
 30
0.0
  0
LWPOLYLINE
  5
150
100
AcDbEntity
  8
0
 62
7
100
AcDbPolyline
 90
2
 70
0
 10
49.799559
 20
7.134741
 30
0.0
 10
49.799559
 20
7.134741
 30
0.0
  0
LWPOLYLINE
  5
151
100
AcDbEntity
  8
0
 62
7
100
AcDbPolyline
 90
2
 70
0
 10
56.839668
 20
6.189607
 30
0.0
 10
56.839668
 20
6.189607
 30
0.0
  0
ENDSEC
  0
SECTION
  2
OBJECTS
  0
DICTIONARY
  5
C
330
0
100
AcDbDictionary
  3
ACAD_GROUP
350
D
  3
ACAD_MLINESTYLE
350
17
  0
DICTIONARY
  5
D
330
C
100
AcDbDictionary
  0
DICTIONARY
  5
1A
330
C
100
AcDbDictionary
  0
DICTIONARY
  5
17
330
C
100
AcDbDictionary
  3
STANDARD
350
18
  0
DICTIONARY
  5
19
330
C
100
AcDbDictionary
  0
ENDSEC
  0
EOF
