<?xml version="1.0" encoding="UTF-8" standalone="no"?>
<!-- Created with Inkscape (http://www.inkscape.org/) -->

<svg
   xmlns:dc="http://purl.org/dc/elements/1.1/"
   xmlns:cc="http://creativecommons.org/ns#"
   xmlns:rdf="http://www.w3.org/1999/02/22-rdf-syntax-ns#"
   xmlns:svg="http://www.w3.org/2000/svg"
   xmlns="http://www.w3.org/2000/svg"
   xmlns:sodipodi="http://sodipodi.sourceforge.net/DTD/sodipodi-0.dtd"
   xmlns:inkscape="http://www.inkscape.org/namespaces/inkscape"
   version="1.1"
   width="212.59843"
   height="112.55962"
   id="svg2"
   inkscape:version="0.48.3.1 r9886"
   sodipodi:docname="plosak.svg">
  <metadata
     id="metadata9">
    <rdf:RDF>
      <cc:Work
         rdf:about="">
        <dc:format>image/svg+xml</dc:format>
        <dc:type
           rdf:resource="http://purl.org/dc/dcmitype/StillImage" />
      </cc:Work>
    </rdf:RDF>
  </metadata>
  <defs
     id="defs7" />
  <sodipodi:namedview
     pagecolor="#ffffff"
     bordercolor="#666666"
     borderopacity="1"
     objecttolerance="10"
     gridtolerance="10"
     guidetolerance="10"
     inkscape:pageopacity="0"
     inkscape:pageshadow="2"
     inkscape:window-width="1400"
     inkscape:window-height="991"
     id="base"
     showgrid="false"
     inkscape:zoom="2.5253927"
     inkscape:cx="128.61527"
     inkscape:cy="11.799129"
     inkscape:window-x="0"
     inkscape:window-y="27"
     inkscape:window-maximized="1"
     inkscape:current-layer="svg2" />
  <path
     d="M 0.24958557,40.179192 0.24958557,72.380542 C 0.24961397,74.150042 1.2336329,75.888042 2.7510049,76.798442 L 16.391537,84.982742 C 18.742205,82.236142 23.139347,81.520942 26.239307,83.380942 L 43.852026,93.948542 C 46.951988,95.808542 48.390108,100.02494 47.072823,103.39154 L 60.713353,111.57584 C 61.509211,112.05334 62.436028,112.31004 63.364144,112.31004 L 207.19664,112.31004 C 209.89433,112.31004 212.34885,109.85554 212.34885,107.15784 L 212.34885,87.585042 C 212.34883,86.423642 211.60999,85.295042 210.54557,84.830542 207.80844,83.635942 205.90856,80.733842 205.90859,77.747342 L 205.90859,34.812312 C 205.90859,31.825892 207.80847,28.923762 210.54557,27.729192 211.61,27.264642 212.34885,26.136042 212.34885,24.974652 L 212.34885,5.4017919 C 212.34885,2.7041019 209.89433,0.24958186 207.19664,0.24958186 L 63.364144,0.24958186 C 62.436026,0.24958186 61.509209,0.50629186 60.713353,0.98380186 L 45.93563,9.8504419 C 47.252942,13.217062 45.814817,17.433502 42.714833,19.293492 L 27.376501,28.496492 C 24.276516,30.356482 19.879368,29.641212 17.528729,26.894582 L 2.7510049,35.761212 C 1.23361,36.671652 0.24958647,38.409622 0.24958557,40.179192 z M 201.4004,21.931792 C 201.40214,21.031462 200.58334,20.211072 199.683,20.211072 198.78266,20.211072 197.96386,21.031462 197.9656,21.931792 197.96733,22.829912 198.78487,23.645882 199.683,23.645882 200.58113,23.645882 201.39867,22.829912 201.4004,21.931792 z M 176.45513,25.280732 C 176.45513,22.470642 175.29832,19.677842 173.31128,17.690812 171.32424,15.703772 168.53145,14.546962 165.72136,14.546962 162.91127,14.546962 160.11848,15.703772 158.13144,17.690812 156.1444,19.677842 154.98759,22.470642 154.98759,25.280732 154.98759,28.090822 156.1444,30.883622 158.13144,32.870652 160.11848,34.857692 162.91127,36.014502 165.72136,36.014502 168.53145,36.014502 171.32424,34.857692 173.31128,32.870652 175.29832,30.883622 176.45513,28.090822 176.45513,25.280732 z M 52.630374,56.279852 C 52.631232,53.469212 51.474804,50.675542 49.487685,48.687812 47.500565,46.700092 44.707246,45.542812 41.896606,45.542812 39.085965,45.542812 36.292646,46.700092 34.305526,48.687812 32.318407,50.675542 31.161979,53.469212 31.162837,56.279852 31.163695,59.089402 32.320889,61.881312 34.307843,63.867652 36.294797,65.854042 39.087057,67.010342 41.896606,67.010342 44.706154,67.010342 47.498414,65.854042 49.485368,63.867652 51.472322,61.881312 52.629516,59.089402 52.630374,56.279852 z M 120.63953,87.279042 C 120.64163,84.467642 119.48576,81.672642 117.49852,79.683942 115.51128,77.695242 112.7172,76.537242 109.90577,76.537242 107.09433,76.537242 104.30025,77.695242 102.31301,79.683942 100.32577,81.672642 99.169899,84.467642 99.171999,87.279042 99.174099,90.087842 100.33185,92.878442 102.31868,94.863742 104.30552,96.849142 107.09701,98.004742 109.90577,98.004742 112.71452,98.004742 115.50601,96.849142 117.49285,94.863742 119.47968,92.878442 120.63743,90.087842 120.63953,87.279042 z M 120.63953,25.280732 C 120.64163,22.469302 119.48576,19.674352 117.49852,17.685622 115.51128,15.696902 112.7172,14.538942 109.90577,14.538942 107.09433,14.538942 104.30025,15.696902 102.31301,17.685622 100.32577,19.674352 99.169899,22.469302 99.171999,25.280732 99.174099,28.089492 100.33185,30.880112 102.31868,32.865462 104.30552,34.850812 107.09701,36.006472 109.90577,36.006472 112.71452,36.006472 115.50601,34.850812 117.49285,32.865462 119.47968,30.880112 120.63743,28.089492 120.63953,25.280732 z M 176.45513,87.279042 C 176.45513,84.468942 175.29832,81.676142 173.31128,79.689142 171.32424,77.702042 168.53145,76.545242 165.72136,76.545242 162.91127,76.545242 160.11848,77.702042 158.13144,79.689142 156.1444,81.676142 154.98759,84.468942 154.98759,87.279042 154.98759,90.089142 156.1444,92.881942 158.13144,94.868942 160.11848,96.856042 162.91127,98.012842 165.72136,98.012842 168.53145,98.012842 171.32424,96.856042 173.31128,94.868942 175.29832,92.881942 176.45513,90.089142 176.45513,87.279042 z M 201.4004,90.627942 C 201.40214,89.727642 200.58334,88.907242 199.683,88.907242 198.78266,88.907242 197.96386,89.727642 197.9656,90.627942 197.96733,91.526042 198.78487,92.342042 199.683,92.342042 200.58113,92.342042 201.39867,91.526042 201.4004,90.627942 z"
     id="path113"
     style="fill:none;stroke:#000000;stroke-width:0.4991653;stroke-linecap:round;stroke-opacity:1"
     inkscape:connector-curvature="0" />
</svg>
