  0
SECTION
  2
HEADER
  9
$ACADVER
  1
AC1014
  9
$HANDSEED
  5
FFFF
  9
$MEASUREMENT
 70
     1
  0
ENDSEC
  0
SECTION
  2
TABLES
  0
TABLE
  2
VPORT
  5
8
330
0
100
AcDbSymbolTable
 70
     4
  0
VPORT
  5
2E
330
8
100
AcDbSymbolTableRecord
100
AcDbViewportTableRecord
  2
*ACTIVE
 70
     0
 10
0.0
 20
0.0
 11
1.0
 21
1.0
 12
210.0
 22
148.5
 13
0.0
 23
0.0
 14
10.0
 24
10.0
 15
10.0
 25
10.0
 16
0.0
 26
0.0
 36
1.0
 17
0.0
 27
0.0
 37
0.0
 40
341.0
 41
1.24
 42
50.0
 43
0.0
 44
0.0
 50
0.0
 51
0.0
 71
     0
 72
   100
 73
     1
 74
     3
 75
     0
 76
     0
 77
     0
 78
     0
  0
ENDTAB
  0
TABLE
  2
LTYPE
  5
5
330
0
100
AcDbSymbolTable
 70
     1
  0
LTYPE
  5
14
330
5
100
AcDbSymbolTableRecord
100
AcDbLinetypeTableRecord
  2
BYBLOCK
 70
     0
  3

 72
    65
 73
     0
 40
0.0
  0
LTYPE
  5
15
330
5
100
AcDbSymbolTableRecord
100
AcDbLinetypeTableRecord
  2
BYLAYER
 70
     0
  3

 72
    65
 73
     0
 40
0.0
  0
LTYPE
  5
16
330
5
100
AcDbSymbolTableRecord
100
AcDbLinetypeTableRecord
  2
CONTINUOUS
 70
     0
  3
Solid line
 72
    65
 73
     0
 40
0.0
  0
ENDTAB
  0
TABLE
  2
LAYER
  5
2
100
AcDbSymbolTable
 70
1
  0
LAYER
  5
50
100
AcDbSymbolTableRecord
100
AcDbLayerTableRecord
  2
0
 70
0
  6
CONTINUOUS
  0
ENDTAB
  0
TABLE
  2
STYLE
  5
3
330
0
100
AcDbSymbolTable
 70
     1
  0
STYLE
  5
11
330
3
100
AcDbSymbolTableRecord
100
AcDbTextStyleTableRecord
  2
STANDARD
 70
     0
 40
0.0
 41
1.0
 50
0.0
 71
     0
 42
2.5
  3
txt
  4

  0
ENDTAB
  0
TABLE
  2
VIEW
  5
6
330
0
100
AcDbSymbolTable
 70
     0
  0
ENDTAB
  0
TABLE
  2
UCS
  5
7
330
0
100
AcDbSymbolTable
 70
     0
  0
ENDTAB
  0
TABLE
  2
APPID
  5
9
330
0
100
AcDbSymbolTable
 70
     2
  0
APPID
  5
12
330
9
100
AcDbSymbolTableRecord
100
AcDbRegAppTableRecord
  2
ACAD
 70
     0
  0
ENDTAB
  0
TABLE
  2
DIMSTYLE
  5
A
330
0
100
AcDbSymbolTable
 70
     1
  0
DIMSTYLE
105
27
330
A
100
AcDbSymbolTableRecord
100
AcDbDimStyleTableRecord
  2
ISO-25
 70
     0
  3

  4

  5

  6

  7

 40
1.0
 41
2.5
 42
0.625
 43
3.75
 44
1.25
 45
0.0
 46
0.0
 47
0.0
 48
0.0
140
2.5
141
2.5
142
0.0
143
0.03937007874016
144
1.0
145
0.0
146
1.0
147
0.625
 71
     0
 72
     0
 73
     0
 74
     0
 75
     0
 76
     0
 77
     1
 78
     8
170
     0
171
     3
172
     1
173
     0
174
     0
175
     0
176
     0
177
     0
178
     0
270
     2
271
     2
272
     2
273
     2
274
     3
340
11
275
     0
280
     0
281
     0
282
     0
283
     0
284
     8
285
     0
286
     0
287
     3
288
     0
  0
ENDTAB
  0
TABLE
  2
BLOCK_RECORD
  5
1
330
0
100
AcDbSymbolTable
 70
     1
  0
BLOCK_RECORD
  5
1F
330
1
100
AcDbSymbolTableRecord
100
AcDbBlockTableRecord
  2
*MODEL_SPACE
  0
BLOCK_RECORD
  5
1B
330
1
100
AcDbSymbolTableRecord
100
AcDbBlockTableRecord
  2
*PAPER_SPACE
  0
ENDTAB
  0
ENDSEC
  0
SECTION
  2
BLOCKS
  0
BLOCK
  5
20
330
1F
100
AcDbEntity
  8
0
100
AcDbBlockBegin
  2
*MODEL_SPACE
 70
     0
 10
0.0
 20
0.0
 30
0.0
  3
*MODEL_SPACE
  1

  0
ENDBLK
  5
21
330
1F
100
AcDbEntity
  8
0
100
AcDbBlockEnd
  0
BLOCK
  5
1C
330
1B
100
AcDbEntity
 67
     1
  8
0
100
AcDbBlockBegin
  2
*PAPER_SPACE
  1

  0
ENDBLK
  5
1D
330
1B
100
AcDbEntity
 67
     1
  8
0
100
AcDbBlockEnd
  0
ENDSEC
  0
SECTION
  2
ENTITIES
  0
LINE
  5
100
100
AcDbEntity
  8
0
 62
7
100
AcDbLine
 10
0.070439
 20
20.427365
 30
0.0
 11
0.070439
 21
11.339429
 31
0.0
  0
LINE
  5
101
100
AcDbEntity
  8
0
 62
7
100
AcDbLine
 10
0.070439
 20
11.339429
 30
0.0
 11
0.262831
 21
10.625093
 31
0.0
  0
LINE
  5
102
100
AcDbEntity
  8
0
 62
7
100
AcDbLine
 10
0.262831
 20
10.625093
 30
0.0
 11
0.776395
 21
10.092599
 31
0.0
  0
LINE
  5
103
100
AcDbEntity
  8
0
 62
7
100
AcDbLine
 10
0.776395
 20
10.092599
 30
0.0
 11
4.626056
 21
7.782808
 31
0.0
  0
LINE
  5
104
100
AcDbEntity
  8
0
 62
7
100
AcDbLine
 10
4.626056
 20
7.782808
 30
0.0
 11
5.217162
 21
8.254279
 31
0.0
  0
LINE
  5
105
100
AcDbEntity
  8
0
 62
7
100
AcDbLine
 10
5.217162
 20
8.254279
 30
0.0
 11
5.936386
 21
8.496371
 31
0.0
  0
LINE
  5
106
100
AcDbEntity
  8
0
 62
7
100
AcDbLine
 10
5.936386
 20
8.496371
 30
0.0
 11
6.695259
 21
8.494698
 31
0.0
  0
LINE
  5
107
100
AcDbEntity
  8
0
 62
7
100
AcDbLine
 10
6.695259
 20
8.494698
 30
0.0
 11
7.405316
 21
8.234871
 31
0.0
  0
LINE
  5
108
100
AcDbEntity
  8
0
 62
7
100
AcDbLine
 10
7.405316
 20
8.234871
 30
0.0
 11
12.376016
 21
5.252460
 31
0.0
  0
LINE
  5
109
100
AcDbEntity
  8
0
 62
7
100
AcDbLine
 10
12.376016
 20
5.252460
 30
0.0
 11
12.939413
 21
4.748205
 31
0.0
  0
LINE
  5
10a
100
AcDbEntity
  8
0
 62
7
100
AcDbLine
 10
12.939413
 20
4.748205
 30
0.0
 11
13.297998
 21
4.079396
 31
0.0
  0
LINE
  5
10b
100
AcDbEntity
  8
0
 62
7
100
AcDbLine
 10
13.297998
 20
4.079396
 30
0.0
 11
13.422837
 21
3.330863
 31
0.0
  0
LINE
  5
10c
100
AcDbEntity
  8
0
 62
7
100
AcDbLine
 10
13.422837
 20
3.330863
 30
0.0
 11
13.284997
 21
2.587436
 31
0.0
  0
LINE
  5
10d
100
AcDbEntity
  8
0
 62
7
100
AcDbLine
 10
13.284997
 20
2.587436
 30
0.0
 11
17.134657
 21
0.277645
 31
0.0
  0
LINE
  5
10e
100
AcDbEntity
  8
0
 62
7
100
AcDbLine
 10
17.134657
 20
0.277645
 30
0.0
 11
17.882770
 21
0.070437
 31
0.0
  0
LINE
  5
10f
100
AcDbEntity
  8
0
 62
7
100
AcDbLine
 10
17.882770
 20
0.070437
 30
0.0
 11
58.475496
 21
0.070437
 31
0.0
  0
LINE
  5
110
100
AcDbEntity
  8
0
 62
7
100
AcDbLine
 10
58.475496
 20
0.070437
 30
0.0
 11
59.023888
 21
0.190571
 31
0.0
  0
LINE
  5
111
100
AcDbEntity
  8
0
 62
7
100
AcDbLine
 10
59.023888
 20
0.190571
 30
0.0
 11
59.488036
 21
0.511962
 31
0.0
  0
LINE
  5
112
100
AcDbEntity
  8
0
 62
7
100
AcDbLine
 10
59.488036
 20
0.511962
 30
0.0
 11
59.809431
 21
0.976111
 31
0.0
  0
LINE
  5
113
100
AcDbEntity
  8
0
 62
7
100
AcDbLine
 10
59.809431
 20
0.976111
 30
0.0
 11
59.929564
 21
1.524502
 31
0.0
  0
LINE
  5
114
100
AcDbEntity
  8
0
 62
7
100
AcDbLine
 10
59.929564
 20
1.524502
 30
0.0
 11
59.929564
 21
7.048381
 31
0.0
  0
LINE
  5
115
100
AcDbEntity
  8
0
 62
7
100
AcDbLine
 10
59.929564
 20
7.048381
 30
0.0
 11
59.787750
 21
7.510827
 31
0.0
  0
LINE
  5
116
100
AcDbEntity
  8
0
 62
7
100
AcDbLine
 10
59.787750
 20
7.510827
 30
0.0
 11
59.420639
 21
7.825762
 31
0.0
  0
LINE
  5
117
100
AcDbEntity
  8
0
 62
7
100
AcDbLine
 10
59.420639
 20
7.825762
 30
0.0
 11
58.476625
 21
8.635638
 31
0.0
  0
LINE
  5
118
100
AcDbEntity
  8
0
 62
7
100
AcDbLine
 10
58.476625
 20
8.635638
 30
0.0
 11
58.111980
 21
9.824798
 31
0.0
  0
LINE
  5
119
100
AcDbEntity
  8
0
 62
7
100
AcDbLine
 10
58.111980
 20
9.824798
 30
0.0
 11
58.111980
 21
21.942018
 31
0.0
  0
LINE
  5
11a
100
AcDbEntity
  8
0
 62
7
100
AcDbLine
 10
58.111980
 20
21.942018
 30
0.0
 11
58.476634
 21
23.131162
 31
0.0
  0
LINE
  5
11b
100
AcDbEntity
  8
0
 62
7
100
AcDbLine
 10
58.476634
 20
23.131162
 30
0.0
 11
59.420639
 21
23.941032
 31
0.0
  0
LINE
  5
11c
100
AcDbEntity
  8
0
 62
7
100
AcDbLine
 10
59.420639
 20
23.941032
 30
0.0
 11
59.787753
 21
24.255979
 31
0.0
  0
LINE
  5
11d
100
AcDbEntity
  8
0
 62
7
100
AcDbLine
 10
59.787753
 20
24.255979
 30
0.0
 11
59.929564
 21
24.718424
 31
0.0
  0
LINE
  5
11e
100
AcDbEntity
  8
0
 62
7
100
AcDbLine
 10
59.929564
 20
24.718424
 30
0.0
 11
59.929564
 21
30.242320
 31
0.0
  0
LINE
  5
11f
100
AcDbEntity
  8
0
 62
7
100
AcDbLine
 10
59.929564
 20
30.242320
 30
0.0
 11
59.809431
 21
30.790712
 31
0.0
  0
LINE
  5
120
100
AcDbEntity
  8
0
 62
7
100
AcDbLine
 10
59.809431
 20
30.790712
 30
0.0
 11
59.488036
 21
31.254860
 31
0.0
  0
LINE
  5
121
100
AcDbEntity
  8
0
 62
7
100
AcDbLine
 10
59.488036
 20
31.254860
 30
0.0
 11
59.023888
 21
31.576255
 31
0.0
  0
LINE
  5
122
100
AcDbEntity
  8
0
 62
7
100
AcDbLine
 10
59.023888
 20
31.576255
 30
0.0
 11
58.475496
 21
31.696389
 31
0.0
  0
LINE
  5
123
100
AcDbEntity
  8
0
 62
7
100
AcDbLine
 10
58.475496
 20
31.696389
 30
0.0
 11
17.882770
 21
31.696389
 31
0.0
  0
LINE
  5
124
100
AcDbEntity
  8
0
 62
7
100
AcDbLine
 10
17.882770
 20
31.696389
 30
0.0
 11
17.134657
 21
31.489175
 31
0.0
  0
LINE
  5
125
100
AcDbEntity
  8
0
 62
7
100
AcDbLine
 10
17.134657
 20
31.489175
 30
0.0
 11
12.964056
 21
28.986812
 31
0.0
  0
LINE
  5
126
100
AcDbEntity
  8
0
 62
7
100
AcDbLine
 10
12.964056
 20
28.986812
 30
0.0
 11
13.101901
 21
28.243380
 31
0.0
  0
LINE
  5
127
100
AcDbEntity
  8
0
 62
7
100
AcDbLine
 10
13.101901
 20
28.243380
 30
0.0
 11
12.977063
 21
27.494842
 31
0.0
  0
LINE
  5
128
100
AcDbEntity
  8
0
 62
7
100
AcDbLine
 10
12.977063
 20
27.494842
 30
0.0
 11
12.618476
 21
26.826029
 31
0.0
  0
LINE
  5
129
100
AcDbEntity
  8
0
 62
7
100
AcDbLine
 10
12.618476
 20
26.826029
 30
0.0
 11
12.055075
 21
26.321774
 31
0.0
  0
LINE
  5
12a
100
AcDbEntity
  8
0
 62
7
100
AcDbLine
 10
12.055075
 20
26.321774
 30
0.0
 11
7.726257
 21
23.724483
 31
0.0
  0
LINE
  5
12b
100
AcDbEntity
  8
0
 62
7
100
AcDbLine
 10
7.726257
 20
23.724483
 30
0.0
 11
7.016197
 21
23.464661
 31
0.0
  0
LINE
  5
12c
100
AcDbEntity
  8
0
 62
7
100
AcDbLine
 10
7.016197
 20
23.464661
 30
0.0
 11
6.257321
 21
23.462996
 31
0.0
  0
LINE
  5
12d
100
AcDbEntity
  8
0
 62
7
100
AcDbLine
 10
6.257321
 20
23.462996
 30
0.0
 11
5.538099
 21
23.705099
 31
0.0
  0
LINE
  5
12e
100
AcDbEntity
  8
0
 62
7
100
AcDbLine
 10
5.538099
 20
23.705099
 30
0.0
 11
4.946997
 21
24.176577
 31
0.0
  0
LINE
  5
12f
100
AcDbEntity
  8
0
 62
7
100
AcDbLine
 10
4.946997
 20
24.176577
 30
0.0
 11
0.776395
 21
21.674217
 31
0.0
  0
LINE
  5
130
100
AcDbEntity
  8
0
 62
7
100
AcDbLine
 10
0.776395
 20
21.674217
 30
0.0
 11
0.262826
 21
21.141716
 31
0.0
  0
LINE
  5
131
100
AcDbEntity
  8
0
 62
7
100
AcDbLine
 10
0.262826
 20
21.141716
 30
0.0
 11
0.070439
 21
20.427365
 31
0.0
  0
LINE
  5
132
100
AcDbEntity
  8
0
 62
7
100
AcDbLine
 10
0.070439
 20
20.427365
 30
0.0
 11
0.070439
 21
20.427365
 31
0.0
  0
LINE
  5
133
100
AcDbEntity
  8
0
 62
7
100
AcDbLine
 10
56.839668
 20
25.577187
 30
0.0
 11
56.692794
 21
25.915285
 31
0.0
  0
LINE
  5
134
100
AcDbEntity
  8
0
 62
7
100
AcDbLine
 10
56.692794
 20
25.915285
 30
0.0
 11
56.354980
 21
26.062812
 31
0.0
  0
LINE
  5
135
100
AcDbEntity
  8
0
 62
7
100
AcDbLine
 10
56.354980
 20
26.062812
 30
0.0
 11
56.017166
 21
25.915285
 31
0.0
  0
LINE
  5
136
100
AcDbEntity
  8
0
 62
7
100
AcDbLine
 10
56.017166
 20
25.915285
 30
0.0
 11
55.870292
 21
25.577187
 31
0.0
  0
LINE
  5
137
100
AcDbEntity
  8
0
 62
7
100
AcDbLine
 10
55.870292
 20
25.577187
 30
0.0
 11
56.017767
 21
25.240259
 31
0.0
  0
LINE
  5
138
100
AcDbEntity
  8
0
 62
7
100
AcDbLine
 10
56.017767
 20
25.240259
 30
0.0
 11
56.354980
 21
25.093433
 31
0.0
  0
LINE
  5
139
100
AcDbEntity
  8
0
 62
7
100
AcDbLine
 10
56.354980
 20
25.093433
 30
0.0
 11
56.692193
 21
25.240259
 31
0.0
  0
LINE
  5
13a
100
AcDbEntity
  8
0
 62
7
100
AcDbLine
 10
56.692193
 20
25.240259
 30
0.0
 11
56.839668
 21
25.577187
 31
0.0
  0
LINE
  5
13b
100
AcDbEntity
  8
0
 62
7
100
AcDbLine
 10
56.839668
 20
25.577187
 30
0.0
 11
56.839668
 21
25.577187
 31
0.0
  0
LINE
  5
13c
100
AcDbEntity
  8
0
 62
7
100
AcDbLine
 10
49.799559
 20
24.632042
 30
0.0
 11
49.566220
 21
25.790171
 31
0.0
  0
LINE
  5
13d
100
AcDbEntity
  8
0
 62
7
100
AcDbLine
 10
49.566220
 20
25.790171
 30
0.0
 11
48.912295
 21
26.774086
 31
0.0
  0
LINE
  5
13e
100
AcDbEntity
  8
0
 62
7
100
AcDbLine
 10
48.912295
 20
26.774086
 30
0.0
 11
47.928378
 21
27.428013
 31
0.0
  0
LINE
  5
13f
100
AcDbEntity
  8
0
 62
7
100
AcDbLine
 10
47.928378
 20
27.428013
 30
0.0
 11
46.770250
 21
27.661350
 31
0.0
  0
LINE
  5
140
100
AcDbEntity
  8
0
 62
7
100
AcDbLine
 10
46.770250
 20
27.661350
 30
0.0
 11
45.612123
 21
27.428013
 31
0.0
  0
LINE
  5
141
100
AcDbEntity
  8
0
 62
7
100
AcDbLine
 10
45.612123
 20
27.428013
 30
0.0
 11
44.628206
 21
26.774086
 31
0.0
  0
LINE
  5
142
100
AcDbEntity
  8
0
 62
7
100
AcDbLine
 10
44.628206
 20
26.774086
 30
0.0
 11
43.974278
 21
25.790171
 31
0.0
  0
LINE
  5
143
100
AcDbEntity
  8
0
 62
7
100
AcDbLine
 10
43.974278
 20
25.790171
 30
0.0
 11
43.740942
 21
24.632042
 31
0.0
  0
LINE
  5
144
100
AcDbEntity
  8
0
 62
7
100
AcDbLine
 10
43.740942
 20
24.632042
 30
0.0
 11
43.974278
 21
23.473913
 31
0.0
  0
LINE
  5
145
100
AcDbEntity
  8
0
 62
7
100
AcDbLine
 10
43.974278
 20
23.473913
 30
0.0
 11
44.628206
 21
22.489998
 31
0.0
  0
LINE
  5
146
100
AcDbEntity
  8
0
 62
7
100
AcDbLine
 10
44.628206
 20
22.489998
 30
0.0
 11
45.612123
 21
21.836070
 31
0.0
  0
LINE
  5
147
100
AcDbEntity
  8
0
 62
7
100
AcDbLine
 10
45.612123
 20
21.836070
 30
0.0
 11
46.770250
 21
21.602733
 31
0.0
  0
LINE
  5
148
100
AcDbEntity
  8
0
 62
7
100
AcDbLine
 10
46.770250
 20
21.602733
 30
0.0
 11
47.928378
 21
21.836070
 31
0.0
  0
LINE
  5
149
100
AcDbEntity
  8
0
 62
7
100
AcDbLine
 10
47.928378
 20
21.836070
 30
0.0
 11
48.912295
 21
22.489998
 31
0.0
  0
LINE
  5
14a
100
AcDbEntity
  8
0
 62
7
100
AcDbLine
 10
48.912295
 20
22.489998
 30
0.0
 11
49.566220
 21
23.473913
 31
0.0
  0
LINE
  5
14b
100
AcDbEntity
  8
0
 62
7
100
AcDbLine
 10
49.566220
 20
23.473913
 30
0.0
 11
49.799559
 21
24.632042
 31
0.0
  0
LINE
  5
14c
100
AcDbEntity
  8
0
 62
7
100
AcDbLine
 10
49.799559
 20
24.632042
 30
0.0
 11
49.799559
 21
24.632042
 31
0.0
  0
LINE
  5
14d
100
AcDbEntity
  8
0
 62
7
100
AcDbLine
 10
14.853461
 20
15.883401
 30
0.0
 11
14.620387
 21
17.041814
 31
0.0
  0
LINE
  5
14e
100
AcDbEntity
  8
0
 62
7
100
AcDbLine
 10
14.620387
 20
17.041814
 30
0.0
 11
13.966524
 21
18.026044
 31
0.0
  0
LINE
  5
14f
100
AcDbEntity
  8
0
 62
7
100
AcDbLine
 10
13.966524
 20
18.026044
 30
0.0
 11
12.982495
 21
18.680205
 31
0.0
  0
LINE
  5
150
100
AcDbEntity
  8
0
 62
7
100
AcDbLine
 10
12.982495
 20
18.680205
 30
0.0
 11
11.824153
 21
18.913632
 31
0.0
  0
LINE
  5
151
100
AcDbEntity
  8
0
 62
7
100
AcDbLine
 10
11.824153
 20
18.913632
 30
0.0
 11
10.665812
 21
18.680205
 31
0.0
  0
LINE
  5
152
100
AcDbEntity
  8
0
 62
7
100
AcDbLine
 10
10.665812
 20
18.680205
 30
0.0
 11
9.681782
 21
18.026044
 31
0.0
  0
LINE
  5
153
100
AcDbEntity
  8
0
 62
7
100
AcDbLine
 10
9.681782
 20
18.026044
 30
0.0
 11
9.027919
 21
17.041814
 31
0.0
  0
LINE
  5
154
100
AcDbEntity
  8
0
 62
7
100
AcDbLine
 10
9.027919
 20
17.041814
 30
0.0
 11
8.794845
 21
15.883401
 31
0.0
  0
LINE
  5
155
100
AcDbEntity
  8
0
 62
7
100
AcDbLine
 10
8.794845
 20
15.883401
 30
0.0
 11
9.028445
 21
14.725555
 31
0.0
  0
LINE
  5
156
100
AcDbEntity
  8
0
 62
7
100
AcDbLine
 10
9.028445
 20
14.725555
 30
0.0
 11
9.682436
 21
13.741955
 31
0.0
  0
LINE
  5
157
100
AcDbEntity
  8
0
 62
7
100
AcDbLine
 10
9.682436
 20
13.741955
 30
0.0
 11
10.666236
 21
13.088261
 31
0.0
  0
LINE
  5
158
100
AcDbEntity
  8
0
 62
7
100
AcDbLine
 10
10.666236
 20
13.088261
 30
0.0
 11
11.824153
 21
12.855018
 31
0.0
  0
LINE
  5
159
100
AcDbEntity
  8
0
 62
7
100
AcDbLine
 10
11.824153
 20
12.855018
 30
0.0
 11
12.982070
 21
13.088261
 31
0.0
  0
LINE
  5
15a
100
AcDbEntity
  8
0
 62
7
100
AcDbLine
 10
12.982070
 20
13.088261
 30
0.0
 11
13.965871
 21
13.741955
 31
0.0
  0
LINE
  5
15b
100
AcDbEntity
  8
0
 62
7
100
AcDbLine
 10
13.965871
 20
13.741955
 30
0.0
 11
14.619861
 21
14.725555
 31
0.0
  0
LINE
  5
15c
100
AcDbEntity
  8
0
 62
7
100
AcDbLine
 10
14.619861
 20
14.725555
 30
0.0
 11
14.853461
 21
15.883401
 31
0.0
  0
LINE
  5
15d
100
AcDbEntity
  8
0
 62
7
100
AcDbLine
 10
14.853461
 20
15.883401
 30
0.0
 11
14.853461
 21
15.883401
 31
0.0
  0
LINE
  5
15e
100
AcDbEntity
  8
0
 62
7
100
AcDbLine
 10
34.047156
 20
7.134741
 30
0.0
 11
33.814464
 21
8.293563
 31
0.0
  0
LINE
  5
15f
100
AcDbEntity
  8
0
 62
7
100
AcDbLine
 10
33.814464
 20
8.293563
 30
0.0
 11
33.160693
 21
9.278247
 31
0.0
  0
LINE
  5
160
100
AcDbEntity
  8
0
 62
7
100
AcDbLine
 10
33.160693
 20
9.278247
 30
0.0
 11
32.176500
 21
9.932752
 31
0.0
  0
LINE
  5
161
100
AcDbEntity
  8
0
 62
7
100
AcDbLine
 10
32.176500
 20
9.932752
 30
0.0
 11
31.017851
 21
10.166316
 31
0.0
  0
LINE
  5
162
100
AcDbEntity
  8
0
 62
7
100
AcDbLine
 10
31.017851
 20
10.166316
 30
0.0
 11
29.859199
 21
9.932752
 31
0.0
  0
LINE
  5
163
100
AcDbEntity
  8
0
 62
7
100
AcDbLine
 10
29.859199
 20
9.932752
 30
0.0
 11
28.875005
 21
9.278247
 31
0.0
  0
LINE
  5
164
100
AcDbEntity
  8
0
 62
7
100
AcDbLine
 10
28.875005
 20
9.278247
 30
0.0
 11
28.221235
 21
8.293563
 31
0.0
  0
LINE
  5
165
100
AcDbEntity
  8
0
 62
7
100
AcDbLine
 10
28.221235
 20
8.293563
 30
0.0
 11
27.988542
 21
7.134741
 31
0.0
  0
LINE
  5
166
100
AcDbEntity
  8
0
 62
7
100
AcDbLine
 10
27.988542
 20
7.134741
 30
0.0
 11
28.222524
 21
5.977302
 31
0.0
  0
LINE
  5
167
100
AcDbEntity
  8
0
 62
7
100
AcDbLine
 10
28.222524
 20
5.977302
 30
0.0
 11
28.876605
 21
4.994170
 31
0.0
  0
LINE
  5
168
100
AcDbEntity
  8
0
 62
7
100
AcDbLine
 10
28.876605
 20
4.994170
 30
0.0
 11
29.860243
 21
4.340819
 31
0.0
  0
LINE
  5
169
100
AcDbEntity
  8
0
 62
7
100
AcDbLine
 10
29.860243
 20
4.340819
 30
0.0
 11
31.017851
 21
4.107710
 31
0.0
  0
LINE
  5
16a
100
AcDbEntity
  8
0
 62
7
100
AcDbLine
 10
31.017851
 20
4.107710
 30
0.0
 11
32.175458
 21
4.340819
 31
0.0
  0
LINE
  5
16b
100
AcDbEntity
  8
0
 62
7
100
AcDbLine
 10
32.175458
 20
4.340819
 30
0.0
 11
33.159093
 21
4.994170
 31
0.0
  0
LINE
  5
16c
100
AcDbEntity
  8
0
 62
7
100
AcDbLine
 10
33.159093
 20
4.994170
 30
0.0
 11
33.813174
 21
5.977302
 31
0.0
  0
LINE
  5
16d
100
AcDbEntity
  8
0
 62
7
100
AcDbLine
 10
33.813174
 20
5.977302
 30
0.0
 11
34.047156
 21
7.134741
 31
0.0
  0
LINE
  5
16e
100
AcDbEntity
  8
0
 62
7
100
AcDbLine
 10
34.047156
 20
7.134741
 30
0.0
 11
34.047156
 21
7.134741
 31
0.0
  0
LINE
  5
16f
100
AcDbEntity
  8
0
 62
7
100
AcDbLine
 10
34.047156
 20
24.632042
 30
0.0
 11
33.814464
 21
25.790865
 31
0.0
  0
LINE
  5
170
100
AcDbEntity
  8
0
 62
7
100
AcDbLine
 10
33.814464
 20
25.790865
 30
0.0
 11
33.160693
 21
26.775551
 31
0.0
  0
LINE
  5
171
100
AcDbEntity
  8
0
 62
7
100
AcDbLine
 10
33.160693
 20
26.775551
 30
0.0
 11
32.176500
 21
27.430055
 31
0.0
  0
LINE
  5
172
100
AcDbEntity
  8
0
 62
7
100
AcDbLine
 10
32.176500
 20
27.430055
 30
0.0
 11
31.017851
 21
27.663614
 31
0.0
  0
LINE
  5
173
100
AcDbEntity
  8
0
 62
7
100
AcDbLine
 10
31.017851
 20
27.663614
 30
0.0
 11
29.859199
 21
27.430055
 31
0.0
  0
LINE
  5
174
100
AcDbEntity
  8
0
 62
7
100
AcDbLine
 10
29.859199
 20
27.430055
 30
0.0
 11
28.875005
 21
26.775551
 31
0.0
  0
LINE
  5
175
100
AcDbEntity
  8
0
 62
7
100
AcDbLine
 10
28.875005
 20
26.775551
 30
0.0
 11
28.221235
 21
25.790865
 31
0.0
  0
LINE
  5
176
100
AcDbEntity
  8
0
 62
7
100
AcDbLine
 10
28.221235
 20
25.790865
 30
0.0
 11
27.988542
 21
24.632042
 31
0.0
  0
LINE
  5
177
100
AcDbEntity
  8
0
 62
7
100
AcDbLine
 10
27.988542
 20
24.632042
 30
0.0
 11
28.222524
 21
23.474608
 31
0.0
  0
LINE
  5
178
100
AcDbEntity
  8
0
 62
7
100
AcDbLine
 10
28.222524
 20
23.474608
 30
0.0
 11
28.876605
 21
22.491462
 31
0.0
  0
LINE
  5
179
100
AcDbEntity
  8
0
 62
7
100
AcDbLine
 10
28.876605
 20
22.491462
 30
0.0
 11
29.860243
 21
21.838115
 31
0.0
  0
LINE
  5
17a
100
AcDbEntity
  8
0
 62
7
100
AcDbLine
 10
29.860243
 20
21.838115
 30
0.0
 11
31.017851
 21
21.605000
 31
0.0
  0
LINE
  5
17b
100
AcDbEntity
  8
0
 62
7
100
AcDbLine
 10
31.017851
 20
21.605000
 30
0.0
 11
32.175458
 21
21.838115
 31
0.0
  0
LINE
  5
17c
100
AcDbEntity
  8
0
 62
7
100
AcDbLine
 10
32.175458
 20
21.838115
 30
0.0
 11
33.159093
 21
22.491462
 31
0.0
  0
LINE
  5
17d
100
AcDbEntity
  8
0
 62
7
100
AcDbLine
 10
33.159093
 20
22.491462
 30
0.0
 11
33.813174
 21
23.474608
 31
0.0
  0
LINE
  5
17e
100
AcDbEntity
  8
0
 62
7
100
AcDbLine
 10
33.813174
 20
23.474608
 30
0.0
 11
34.047156
 21
24.632042
 31
0.0
  0
LINE
  5
17f
100
AcDbEntity
  8
0
 62
7
100
AcDbLine
 10
34.047156
 20
24.632042
 30
0.0
 11
34.047156
 21
24.632042
 31
0.0
  0
LINE
  5
180
100
AcDbEntity
  8
0
 62
7
100
AcDbLine
 10
49.799559
 20
7.134741
 30
0.0
 11
49.566220
 21
8.292871
 31
0.0
  0
LINE
  5
181
100
AcDbEntity
  8
0
 62
7
100
AcDbLine
 10
49.566220
 20
8.292871
 30
0.0
 11
48.912295
 21
9.276779
 31
0.0
  0
LINE
  5
182
100
AcDbEntity
  8
0
 62
7
100
AcDbLine
 10
48.912295
 20
9.276779
 30
0.0
 11
47.928378
 21
9.930720
 31
0.0
  0
LINE
  5
183
100
AcDbEntity
  8
0
 62
7
100
AcDbLine
 10
47.928378
 20
9.930720
 30
0.0
 11
46.770250
 21
10.164058
 31
0.0
  0
LINE
  5
184
100
AcDbEntity
  8
0
 62
7
100
AcDbLine
 10
46.770250
 20
10.164058
 30
0.0
 11
45.612123
 21
9.930720
 31
0.0
  0
LINE
  5
185
100
AcDbEntity
  8
0
 62
7
100
AcDbLine
 10
45.612123
 20
9.930720
 30
0.0
 11
44.628206
 21
9.276779
 31
0.0
  0
LINE
  5
186
100
AcDbEntity
  8
0
 62
7
100
AcDbLine
 10
44.628206
 20
9.276779
 30
0.0
 11
43.974278
 21
8.292871
 31
0.0
  0
LINE
  5
187
100
AcDbEntity
  8
0
 62
7
100
AcDbLine
 10
43.974278
 20
8.292871
 30
0.0
 11
43.740942
 21
7.134741
 31
0.0
  0
LINE
  5
188
100
AcDbEntity
  8
0
 62
7
100
AcDbLine
 10
43.740942
 20
7.134741
 30
0.0
 11
43.974278
 21
5.976610
 31
0.0
  0
LINE
  5
189
100
AcDbEntity
  8
0
 62
7
100
AcDbLine
 10
43.974278
 20
5.976610
 30
0.0
 11
44.628206
 21
4.992702
 31
0.0
  0
LINE
  5
18a
100
AcDbEntity
  8
0
 62
7
100
AcDbLine
 10
44.628206
 20
4.992702
 30
0.0
 11
45.612123
 21
4.338762
 31
0.0
  0
LINE
  5
18b
100
AcDbEntity
  8
0
 62
7
100
AcDbLine
 10
45.612123
 20
4.338762
 30
0.0
 11
46.770250
 21
4.105424
 31
0.0
  0
LINE
  5
18c
100
AcDbEntity
  8
0
 62
7
100
AcDbLine
 10
46.770250
 20
4.105424
 30
0.0
 11
47.928378
 21
4.338762
 31
0.0
  0
LINE
  5
18d
100
AcDbEntity
  8
0
 62
7
100
AcDbLine
 10
47.928378
 20
4.338762
 30
0.0
 11
48.912295
 21
4.992702
 31
0.0
  0
LINE
  5
18e
100
AcDbEntity
  8
0
 62
7
100
AcDbLine
 10
48.912295
 20
4.992702
 30
0.0
 11
49.566220
 21
5.976610
 31
0.0
  0
LINE
  5
18f
100
AcDbEntity
  8
0
 62
7
100
AcDbLine
 10
49.566220
 20
5.976610
 30
0.0
 11
49.799559
 21
7.134741
 31
0.0
  0
LINE
  5
190
100
AcDbEntity
  8
0
 62
7
100
AcDbLine
 10
49.799559
 20
7.134741
 30
0.0
 11
49.799559
 21
7.134741
 31
0.0
  0
LINE
  5
191
100
AcDbEntity
  8
0
 62
7
100
AcDbLine
 10
56.839668
 20
6.189607
 30
0.0
 11
56.692794
 21
6.527698
 31
0.0
  0
LINE
  5
192
100
AcDbEntity
  8
0
 62
7
100
AcDbLine
 10
56.692794
 20
6.527698
 30
0.0
 11
56.354980
 21
6.675227
 31
0.0
  0
LINE
  5
193
100
AcDbEntity
  8
0
 62
7
100
AcDbLine
 10
56.354980
 20
6.675227
 30
0.0
 11
56.017166
 21
6.527698
 31
0.0
  0
LINE
  5
194
100
AcDbEntity
  8
0
 62
7
100
AcDbLine
 10
56.017166
 20
6.527698
 30
0.0
 11
55.870292
 21
6.189607
 31
0.0
  0
LINE
  5
195
100
AcDbEntity
  8
0
 62
7
100
AcDbLine
 10
55.870292
 20
6.189607
 30
0.0
 11
56.017767
 21
5.852679
 31
0.0
  0
LINE
  5
196
100
AcDbEntity
  8
0
 62
7
100
AcDbLine
 10
56.017767
 20
5.852679
 30
0.0
 11
56.354980
 21
5.705850
 31
0.0
  0
LINE
  5
197
100
AcDbEntity
  8
0
 62
7
100
AcDbLine
 10
56.354980
 20
5.705850
 30
0.0
 11
56.692193
 21
5.852679
 31
0.0
  0
LINE
  5
198
100
AcDbEntity
  8
0
 62
7
100
AcDbLine
 10
56.692193
 20
5.852679
 30
0.0
 11
56.839668
 21
6.189607
 31
0.0
  0
LINE
  5
199
100
AcDbEntity
  8
0
 62
7
100
AcDbLine
 10
56.839668
 20
6.189607
 30
0.0
 11
56.839668
 21
6.189607
 31
0.0
  0
ENDSEC
  0
SECTION
  2
OBJECTS
  0
DICTIONARY
  5
C
330
0
100
AcDbDictionary
  3
ACAD_GROUP
350
D
  3
ACAD_MLINESTYLE
350
17
  0
DICTIONARY
  5
D
330
C
100
AcDbDictionary
  0
DICTIONARY
  5
1A
330
C
100
AcDbDictionary
  0
DICTIONARY
  5
17
330
C
100
AcDbDictionary
  3
STANDARD
350
18
  0
DICTIONARY
  5
19
330
C
100
AcDbDictionary
  0
ENDSEC
  0
EOF
